<svg width="176" height="46" viewBox="0 0 176 46" fill="none" xmlns="http://www.w3.org/2000/svg">
<g id="DH-logo-ai copy-01 2">
<g id="Group">
<path id="Vector" d="M23.6319 42.3663C34.3632 42.3663 43.0627 33.5489 43.0627 22.6721C43.0627 11.7954 34.3632 2.97803 23.6319 2.97803C12.9005 2.97803 4.20105 11.7954 4.20105 22.6721C4.20105 33.5489 12.9005 42.3663 23.6319 42.3663Z" fill="white"/>
<g id="Group_2">
<path id="Vector_2" d="M23.4758 43.2476C34.6494 43.2476 43.7075 34.0668 43.7075 22.7417C43.7075 11.4166 34.6494 2.23584 23.4758 2.23584C12.3021 2.23584 3.24402 11.4166 3.24402 22.7417C3.24402 34.0668 12.3021 43.2476 23.4758 43.2476Z" fill="white"/>
<path id="Cobweb_1_" opacity="0.48" d="M40.7822 22.3023H39.2151C35.7852 18.1376 36.0811 13.3552 36.1508 12.667L37.4392 11.6082C37.5263 11.5376 37.5437 11.3964 37.474 11.3082C37.4044 11.2199 37.2651 11.2023 37.178 11.2729L35.907 12.3141L35.2628 12.1729C32.6686 11.6435 30.2832 9.94935 28.8555 7.65523L29.5172 5.55523V5.53759V5.51994V5.50229V5.48465V5.467V5.44935V5.4317V5.41406C29.5172 5.41406 29.5171 5.39641 29.4997 5.39641C29.4997 5.39641 29.4997 5.37876 29.4823 5.37876L29.4649 5.36112L29.4475 5.34347C29.4475 5.34347 29.4301 5.34347 29.4301 5.32582L29.4127 5.30817H29.3953C29.3953 5.30817 29.3779 5.30817 29.3779 5.29053H29.3604H29.343C29.3256 5.29053 29.3256 5.29053 29.3082 5.29053C29.3082 5.29053 29.3082 5.29053 29.2908 5.29053C29.2734 5.29053 29.2734 5.29053 29.256 5.29053C29.2386 5.29053 29.2386 5.29053 29.2212 5.30817C29.2037 5.30817 29.2037 5.32582 29.1863 5.32582L29.1689 5.34347L29.1515 5.36112C29.1515 5.36112 29.1515 5.36112 29.1341 5.37876C29.1341 5.37876 29.1341 5.39641 29.1167 5.39641V5.41406L28.4899 7.37288L28.4202 7.58465C25.4952 8.62582 22.396 8.59053 19.4535 7.49641L18.6004 7.17876H18.583C18.583 7.17876 18.583 7.17876 18.5655 7.17876H18.5481L18.0258 5.71406C17.991 5.60817 17.8691 5.53759 17.7472 5.59053C17.6428 5.62582 17.5731 5.74935 17.6253 5.87288L18.2173 7.5317C16.6851 10.0023 14.4043 11.767 12.0712 12.2788L11.3922 12.4199L10.1037 11.3964C10.0167 11.3258 9.87739 11.3435 9.80775 11.4317C9.73811 11.5199 9.75552 11.6611 9.84257 11.7317L11.1484 12.7729C11.2877 13.4611 12.1757 18.8082 8.86755 22.2846H6.37776C6.25588 22.2846 6.16882 22.3905 6.16882 22.4964C6.16882 22.6023 6.25588 22.7082 6.37776 22.7082H8.7979C8.7979 22.7258 8.81532 22.7258 8.83273 22.7435C12.2105 26.2376 11.3051 31.6376 11.1658 32.3258L9.85998 33.367C9.77293 33.4376 9.75552 33.5788 9.82516 33.667C9.89481 33.7552 10.0341 33.7729 10.1212 33.7023L11.4096 32.6788L12.0538 32.8199C14.6306 33.3846 16.8941 35.0258 18.287 37.3376L17.6253 39.2258C17.5905 39.3317 17.6428 39.4729 17.7472 39.5082C17.7646 39.5258 17.7995 39.5258 17.8169 39.5258C17.9039 39.5258 17.991 39.4729 18.0258 39.3846L18.5481 37.9199C18.5655 37.9199 18.6004 37.9199 18.6178 37.9023L19.4709 37.5846C22.4134 36.4905 25.5126 36.4552 28.4377 37.4964L29.1341 39.667V39.6846V39.7023C29.1341 39.7023 29.1341 39.7199 29.1515 39.7199C29.1689 39.7199 29.1515 39.7376 29.1689 39.7376C29.1863 39.7376 29.1689 39.7376 29.1863 39.7552C29.1863 39.7552 29.1863 39.7729 29.2037 39.7729C29.2037 39.7729 29.2212 39.7729 29.2212 39.7905C29.2212 39.7905 29.2212 39.7905 29.2386 39.8082C29.2386 39.8082 29.256 39.8082 29.256 39.8258H29.2734H29.2908H29.3082H29.3256H29.343H29.3604C29.3604 39.8258 29.3605 39.8258 29.3779 39.8258C29.3953 39.8258 29.3953 39.8258 29.4127 39.8258C29.4127 39.8258 29.4127 39.8258 29.4301 39.8258H29.4475H29.4649C29.4649 39.8258 29.4823 39.8258 29.4823 39.8082C29.4823 39.8082 29.4997 39.8082 29.4997 39.7905C29.4997 39.7905 29.5172 39.7905 29.5172 39.7729L29.5346 39.7552L29.552 39.7376C29.552 39.7376 29.552 39.7199 29.5694 39.7199C29.5694 39.7199 29.5694 39.7023 29.5868 39.7023V39.6846V39.667V39.6494V39.6317V39.6141V39.5964V39.5788V39.5611L28.9252 37.4611C30.3529 35.167 32.7382 33.4905 35.3325 32.9435L35.9767 32.8023L37.2477 33.8435C37.3347 33.9141 37.474 33.8964 37.5437 33.8082C37.6133 33.7199 37.5959 33.5788 37.5089 33.5082L36.2204 32.4494C36.1508 31.7611 35.8374 26.9611 39.3196 22.7788C39.337 22.7611 39.3544 22.7611 39.3718 22.7435C39.3893 22.7435 39.3893 22.7258 39.3893 22.7258H40.817C40.9389 22.7258 41.0259 22.6199 41.0259 22.5141C41.0085 22.3905 40.904 22.3023 40.7822 22.3023ZM35.8896 15.8788C36.1682 17.5552 36.8646 19.9905 38.6754 22.3023H34.0092C31.8677 19.4435 32.3029 16.2846 32.39 15.7729L35.7155 13.0376C35.6807 13.6199 35.6807 14.6258 35.8896 15.8788ZM25.1295 25.6552L24.1893 23.0964L26.3309 24.9317C25.8608 25.0729 25.4604 25.3199 25.1295 25.6552ZM21.125 24.9494L23.3014 23.1317L22.3786 25.7435C22.0478 25.3729 21.6125 25.0905 21.125 24.9494ZM26.2961 20.2023L24.2068 21.9141L25.0947 19.4788C25.4255 19.8141 25.8434 20.0611 26.2961 20.2023ZM26.5573 20.5552C26.5398 21.0317 26.6095 21.7199 26.9751 22.3023H24.4157L26.5573 20.5552ZM23.7018 21.9141L22.6572 18.9846C23.0576 19.1258 23.4755 19.1964 23.8934 19.1964C24.1545 19.1964 24.3983 19.1611 24.642 19.1082L23.7018 21.9141ZM22.3612 19.3729L23.2317 21.8964L21.1076 20.167C21.5777 20.0435 22.013 19.7611 22.3612 19.3729ZM23.0576 22.3023H20.6723C20.8986 21.967 21.1076 21.4199 20.9683 20.6435L23.0576 22.3023ZM23.0924 22.7435L21.0031 24.5082C21.1424 23.6611 20.8638 23.0788 20.6375 22.7435H23.0924ZM23.7367 23.1317L24.6769 26.0082C24.0326 25.867 23.3362 25.9199 22.692 26.1317L23.7367 23.1317ZM24.3286 22.7435H27.0622C26.6269 23.3258 26.5573 24.0846 26.5747 24.5788L24.3286 22.7435ZM27.5149 22.3023C26.8707 21.6317 26.9577 20.467 26.9925 20.1846L28.8033 18.7023C28.8381 19.5317 28.9948 21.2082 29.8654 22.3023H27.5149ZM26.7314 19.8494L26.6443 19.8317C26.0872 19.7258 25.5996 19.4258 25.2514 19.0023L25.9479 16.7788C26.6095 17.5905 27.5149 18.1552 28.5421 18.367L26.7314 19.8494ZM24.8161 18.6141C24.1545 18.8082 23.4058 18.7905 22.7268 18.5435L22.5179 18.4729C22.5005 18.4729 22.5005 18.4729 22.4831 18.4729L21.8214 16.5846L21.8563 16.6023C22.396 16.7788 22.9532 16.867 23.5277 16.867C24.1893 16.867 24.851 16.7611 25.4952 16.5317L24.8161 18.6141ZM22.1871 18.8964C21.8388 19.3729 21.3339 19.7082 20.7594 19.8141L20.6723 19.8317L18.8267 18.367C19.854 18.1376 20.7768 17.5552 21.421 16.7258L22.1871 18.8964ZM20.4285 20.1846C20.8986 21.4552 20.3241 22.1258 20.15 22.3023H17.7124C18.1651 21.6317 18.8964 20.2905 18.7048 18.8082L20.4285 20.1846ZM20.0629 22.7435C20.0803 22.7611 20.0977 22.7788 20.1151 22.7964C20.15 22.8317 20.9857 23.4846 20.446 24.9494L18.7222 26.3258C18.9138 24.7729 18.0954 23.3611 17.6602 22.7435H20.0629ZM20.6897 25.3023L20.7768 25.3199C21.3513 25.4258 21.8737 25.7611 22.2045 26.2376L21.4384 28.4082C20.7942 27.5788 19.8714 26.9964 18.8441 26.767L20.6897 25.3023ZM22.5005 26.6788C22.5179 26.6788 22.5179 26.6788 22.5353 26.6788L22.7442 26.6082C23.4233 26.3611 24.1893 26.3258 24.8336 26.5376L25.5126 28.6376C24.3112 28.2317 23.0054 28.1964 21.8563 28.567L21.8214 28.5846L22.5005 26.6788ZM25.2688 26.1494C25.6171 25.7082 26.122 25.4082 26.6617 25.3199L26.7488 25.3023L28.5595 26.8023C27.5323 27.0141 26.6269 27.5788 25.9653 28.3905L25.2688 26.1494ZM27.0274 24.9494C26.9925 24.6494 26.8881 23.4317 27.6019 22.7788C27.6193 22.7611 27.6193 22.7435 27.6367 22.7435H29.9873C29.047 23.8376 28.8729 25.6023 28.8381 26.4494L27.0274 24.9494ZM30.4573 22.3023C29.3082 21.2082 29.2386 18.9141 29.2386 18.3494L31.8851 16.1788C31.7632 17.2905 31.7458 19.8494 33.4695 22.3023H30.4573ZM28.9948 17.9788L28.7337 17.9258C27.6716 17.7317 26.7314 17.1317 26.1046 16.2494L27.1841 12.8258C28.2287 14.3258 29.8131 15.3846 31.6065 15.7552L31.6761 15.7729L28.9948 17.9788ZM25.6693 15.9846C24.4679 16.4788 23.1273 16.5494 21.9781 16.1788L21.6299 16.0729L20.4808 12.8082L20.6897 12.8788C21.6125 13.1964 22.6049 13.3552 23.5974 13.3552C24.642 13.3552 25.6867 13.1788 26.6791 12.8435L25.6693 15.9846ZM21.2469 16.2317C20.6375 17.1317 19.6973 17.7494 18.6352 17.9611L18.374 18.0141L15.6579 15.8258L15.7275 15.8082C17.4861 15.4199 19.0531 14.3611 20.0803 12.8788L21.2469 16.2317ZM18.1825 18.4023C18.67 20.1141 17.5557 21.7905 17.1901 22.3023H14.265C14.7873 21.3846 16.0758 18.8258 15.536 16.3023L18.1825 18.4023ZM17.0508 22.7435C17.0508 22.7611 17.0682 22.7611 17.0682 22.7611C17.103 22.7964 17.1378 22.8141 17.1727 22.8141C17.5383 23.2905 18.6874 25.0023 18.1825 26.7317L15.5534 28.8317C16.1106 26.2023 14.7003 23.5376 14.2302 22.7258L17.0508 22.7435ZM18.4088 27.1199L18.67 27.1729C19.7321 27.367 20.6723 28.0023 21.2817 28.9023L20.0977 32.2552C19.0705 30.7729 17.5035 29.7141 15.7449 29.3258L15.6753 29.3082L18.4088 27.1199ZM21.6647 29.0611L22.013 28.9552C23.1621 28.5846 24.5027 28.6552 25.7041 29.1494L26.7314 32.3082C24.7813 31.6376 22.6223 31.6199 20.7245 32.2729L20.5156 32.3435L21.6647 29.0611ZM26.1394 28.867C26.7488 27.9846 27.7064 27.367 28.7685 27.1905L29.0296 27.1376L31.7284 29.3435L31.6587 29.3611C29.8654 29.7317 28.281 30.7905 27.2363 32.2905L26.1394 28.867ZM29.256 26.7846C29.256 26.2199 29.3256 23.8552 30.527 22.7788C30.5444 22.7611 30.5618 22.7435 30.5618 22.7258H33.5391C31.7458 25.2141 31.7806 27.8258 31.8851 28.9552L29.256 26.7846ZM35.1758 12.6141L35.4718 12.667L32.1288 15.4023L31.711 15.3141C29.9176 14.9435 28.3506 13.8494 27.3756 12.2964L28.6814 8.20229C30.1788 10.4435 32.5815 12.0846 35.1758 12.6141ZM24.0675 8.80229C25.4778 8.80229 26.8707 8.57288 28.2287 8.1317L26.8707 12.2964C24.9206 13.0552 22.7442 13.1082 20.829 12.4552L20.2893 12.2788L18.7222 7.76112V7.72582L19.2968 7.93759C20.8464 8.50229 22.4656 8.80229 24.0675 8.80229ZM12.1234 12.7023C14.4913 12.1729 16.7722 10.4611 18.3566 8.04347L19.8714 12.367C18.9138 13.9023 17.3642 14.9964 15.6057 15.3846L15.1878 15.4729L11.8274 12.7729L12.1234 12.7023ZM11.7578 16.1611C11.8449 14.8729 11.7404 13.7964 11.6533 13.1788L14.9789 15.8435C15.9016 18.6141 14.1257 21.7199 13.7775 22.3023H9.44212C11.1484 20.3258 11.6359 17.8905 11.7578 16.1611ZM11.7752 28.9729C11.6533 27.2082 11.1484 24.7199 9.37247 22.7435H13.7253C13.7427 22.7788 16.0061 26.2552 14.9963 29.2905L11.6707 31.9552C11.7578 31.3376 11.8623 30.2611 11.7752 28.9729ZM12.1408 32.4317L11.8449 32.3611L15.2226 29.6611L15.6405 29.7494C17.399 30.1376 18.9486 31.2317 19.9062 32.767L18.4611 36.8611C17.016 34.6023 14.7351 32.9964 12.1408 32.4317ZM19.3142 37.2141L18.7222 37.4258L20.3241 32.8729L20.8638 32.6964C22.7616 32.0435 24.9554 32.0964 26.9055 32.8552L28.2635 37.0199C25.3211 36.0494 22.2393 36.1199 19.3142 37.2141ZM35.1932 32.5199C32.5989 33.0494 30.1962 34.6905 28.6988 36.9317L27.393 32.8376C28.368 31.2846 29.935 30.1729 31.7284 29.8199L32.1462 29.7317L35.4892 32.467L35.1932 32.5199ZM35.907 29.2552C35.6981 30.5082 35.6981 31.5141 35.7329 32.0788L32.4074 29.3435C32.3203 28.8317 31.8677 25.6199 34.0963 22.7435C34.0963 22.7435 34.0963 22.7258 34.1137 22.7258H38.7973C36.8995 25.0729 36.1856 27.5611 35.907 29.2552Z" fill="#19CBA7"/>
<g id="Group_3">
<g id="Group_4">
<path id="Vector_3" d="M23.5625 1.61865C12.0015 1.61865 2.59949 11.1657 2.59949 22.8834C2.59949 34.601 12.0015 44.1481 23.5799 44.1481C35.1583 44.1481 44.5603 34.6187 44.5603 22.8834C44.5603 11.1481 35.1409 1.61865 23.5625 1.61865ZM22.3959 42.3304C11.6881 41.6422 3.5571 32.2716 4.23613 21.4187C4.91517 10.5657 14.1605 2.32453 24.8683 3.01277C35.5762 3.70101 43.7072 13.0716 43.0281 23.9245C42.3491 34.7951 33.1038 43.0363 22.3959 42.3304Z" fill="#1A776F"/>
</g>
<g id="Group_5">
<path id="Vector_4" d="M24.868 3.01232C14.1601 2.32409 4.91482 10.5653 4.23578 21.4182C3.55675 32.2711 11.6877 41.6417 22.3956 42.33C33.1034 43.0182 42.3487 34.777 43.0278 23.9241C43.7068 13.0711 35.5932 3.7182 24.868 3.01232ZM23.5621 40.6182C13.9164 40.6182 6.06395 32.6594 6.06395 22.8829C6.06395 13.1064 13.9338 5.14762 23.5621 5.14762C33.1905 5.14762 41.0603 13.1064 41.0603 22.8829C41.0603 32.6594 33.2079 40.6182 23.5621 40.6182Z" fill="#1A776F"/>
</g>
<g id="Group_6">
<path id="Vector_5" opacity="0.3" d="M24.868 3.01232C14.1601 2.32409 4.91482 10.5653 4.23578 21.4182C3.55675 32.2711 11.6877 41.6417 22.3956 42.33C33.1034 43.0182 42.3487 34.777 43.0278 23.9241C43.7068 13.0711 35.5932 3.7182 24.868 3.01232ZM23.5621 40.6182C13.9164 40.6182 6.06395 32.6594 6.06395 22.8829C6.06395 13.1064 13.9338 5.14762 23.5621 5.14762C33.1905 5.14762 41.0603 13.1064 41.0603 22.8829C41.0603 32.6594 33.2079 40.6182 23.5621 40.6182Z" fill="#C3F2E8"/>
<path id="Vector_6" opacity="0.3" d="M23.5625 40.6185C33.2265 40.6185 41.0607 32.6782 41.0607 22.8832C41.0607 13.0883 33.2265 5.14795 23.5625 5.14795C13.8985 5.14795 6.06433 13.0883 6.06433 22.8832C6.06433 32.6782 13.8985 40.6185 23.5625 40.6185Z" fill="white"/>
</g>
</g>
<path id="Spider" d="M33.8006 25.267C33.7483 24.9141 33.5046 24.5964 33.1738 24.4552C32.4425 24.1376 30.684 23.5376 26.5401 22.4788C26.5401 22.4788 26.1571 22.2494 27.637 22.3905C27.637 22.3905 32.1117 22.9023 32.1987 21.9846C32.2161 21.7552 33.609 16.7258 30.3009 10.7435C30.3009 10.7435 30.1442 10.7964 30.179 11.0258C30.2313 11.2552 31.5371 19.267 30.4576 20.7493C30.4576 20.7493 30.0049 21.5788 28.0375 21.1023C28.0375 21.1023 29.6219 20.2729 28.612 15.2964C28.316 13.867 27.8634 12.4729 27.2191 11.167C26.8883 10.4964 26.5401 9.89641 26.2789 9.79053C26.2789 9.79053 27.6196 17.6258 26.6968 20.2376C26.6098 20.467 26.4356 20.6435 26.1919 20.6788C25.8959 20.7317 25.4954 20.6258 25.0602 19.9199C25.0602 19.9199 26.0352 18.6317 26.0178 17.1141C26.0004 16.0552 25.4606 14.0964 23.7717 14.0258C22.0829 14.0964 21.5431 16.0552 21.5257 17.1141C21.5083 18.6317 22.4833 19.9199 22.4833 19.9199C22.048 20.6258 21.6302 20.7317 21.3516 20.6788C21.1252 20.6435 20.9337 20.467 20.8467 20.2376C19.9239 17.6082 21.2645 9.79053 21.2645 9.79053C21.0034 9.91406 20.6551 10.5141 20.3243 11.167C19.6801 12.4729 19.2274 13.867 18.9314 15.2964C17.9216 20.2729 19.506 21.1023 19.506 21.1023C17.5386 21.5788 17.0859 20.7493 17.0859 20.7493C15.989 19.2493 17.3122 11.2552 17.3644 11.0258C17.4167 10.7964 17.2426 10.7435 17.2426 10.7435C13.9345 16.7258 15.3099 21.7552 15.3448 21.9846C15.4318 22.9023 19.9065 22.3905 19.9065 22.3905C21.3864 22.2494 21.0034 22.4788 21.0034 22.4788C16.8595 23.5552 15.101 24.1552 14.3697 24.4552C14.0389 24.5964 13.7952 24.8964 13.7429 25.267C13.6733 25.6729 13.7603 26.767 13.7952 26.9435C15.693 34.2846 18.1654 35.9964 18.1654 35.9964C18.1654 35.9964 17.939 34.8141 16.9814 32.2552C15.9193 29.3788 15.6407 26.4141 15.6407 26.4141C15.78 25.4435 18.0435 24.9493 18.0435 24.9493C17.2077 25.9905 18.0435 29.0258 18.0435 29.0258C18.7051 31.6729 21.1427 35.6258 21.0904 35.1846C21.0904 35.1846 19.7672 29.7141 19.506 27.2258C19.2448 24.7376 20.4114 24.5258 20.4114 24.5258C19.7149 32.9964 23.7369 32.9964 23.7369 32.9964C23.7369 32.9964 27.7763 32.9964 27.0624 24.5258C27.0624 24.5258 28.2464 24.7376 27.9678 27.2258C27.6892 29.7141 26.3834 35.1846 26.3834 35.1846C26.3312 35.6082 28.7687 31.6729 29.4304 29.0258C29.4304 29.0258 30.2661 25.9905 29.4304 24.9493C29.4304 24.9493 31.6938 25.4611 31.8331 26.4141C31.8331 26.4141 31.5545 29.3788 30.4924 32.2552C29.5348 34.8141 29.3085 35.9964 29.3085 35.9964C29.3085 35.9964 31.7983 34.2846 33.7309 26.9435C33.7831 26.767 33.8528 25.6729 33.8006 25.267Z" fill="#1A776F"/>
<g id="Group_7">
<g id="Group_8">
<path id="Vector_7" d="M51.9249 26.3946C51.6115 26.0946 51.4374 25.7064 51.4374 25.2475V8.924C51.4374 8.48282 51.5941 8.09459 51.9249 7.77694C52.2383 7.47694 52.6213 7.31812 53.0566 7.31812H58.3844C59.3594 7.31812 60.2822 7.49459 61.1354 7.82988C61.9885 8.16517 62.7546 8.65929 63.4162 9.29459C64.0604 9.92988 64.5654 10.724 64.931 11.6416C65.2966 12.5593 65.4707 13.5652 65.4707 14.624V19.724C65.4707 20.7652 65.2966 21.7358 64.931 22.6181C64.5654 23.5005 64.0604 24.2593 63.4162 24.9122C62.7546 25.5475 62.0059 26.0416 61.1354 26.3769C60.2648 26.7299 59.3594 26.8887 58.3844 26.8887H53.0566C52.6039 26.8711 52.2383 26.7122 51.9249 26.3946ZM58.3844 23.5887C58.9242 23.5887 59.4117 23.5005 59.8818 23.3416C60.3519 23.1828 60.7523 22.9358 61.0831 22.6005C61.8318 21.8946 62.1975 20.9416 62.1975 19.7063V14.5887C62.1975 13.9711 62.093 13.3887 61.9015 12.8593C61.7099 12.3299 61.4314 11.8887 61.0831 11.5711C60.7349 11.2534 60.3345 11.024 59.8818 10.8475C59.4291 10.6711 58.9242 10.6005 58.3844 10.6005H54.6933V23.5711L58.3844 23.5887Z" fill="#1A776F"/>
<path id="Vector_8" d="M69.3186 26.5358C69.0052 26.2358 68.8311 25.8475 68.8311 25.3887V8.924C68.8311 8.48282 68.9878 8.09459 69.3186 7.77694C69.632 7.47694 70.015 7.31812 70.4503 7.31812C70.9204 7.31812 71.3034 7.47694 71.6168 7.77694C71.9302 8.07694 72.0695 8.46517 72.0695 8.94164V25.424C72.0695 25.8828 71.9128 26.2711 71.5994 26.5711C71.286 26.8887 70.903 27.0475 70.4503 27.0475C69.9976 27.0122 69.632 26.8534 69.3186 26.5358Z" fill="#1A776F"/>
<path id="Vector_9" d="M80.1313 26.4828C79.2608 26.1122 78.5121 25.6004 77.8679 24.9298C77.2062 24.2593 76.7013 23.4651 76.3531 22.5475C75.9875 21.6298 75.8134 20.6593 75.8134 19.6004V14.6945C75.8134 13.6534 75.9875 12.6651 76.3531 11.7475C76.7187 10.8298 77.2062 10.0357 77.8505 9.36514C78.4947 8.69455 79.2433 8.18278 80.0965 7.8122C80.9496 7.44161 81.8724 7.26514 82.8649 7.26514C84.31 7.26514 85.581 7.60043 86.6605 8.28867C87.5136 8.83572 88.2797 9.62984 88.9762 10.671C89.1851 10.971 89.2896 11.3416 89.2896 11.7298C89.2896 12.171 89.1329 12.5416 88.8195 12.8593C88.6802 13.0004 88.4887 13.124 88.2797 13.2122C88.0708 13.3004 87.8444 13.3534 87.6181 13.3534C87.3743 13.3534 87.148 13.3004 86.9565 13.2122C86.765 13.1063 86.5908 12.9651 86.4864 12.771C86.26 12.4004 86.0511 12.0828 85.8422 11.8357C85.6332 11.5887 85.4243 11.3769 85.1631 11.1828C84.606 10.7945 83.8399 10.5828 82.8474 10.5828C82.3077 10.5828 81.8202 10.671 81.3501 10.8651C80.88 11.0593 80.4969 11.324 80.1661 11.6769C79.8179 12.0475 79.5393 12.471 79.3478 12.9828C79.1563 13.4945 79.0692 14.0416 79.0692 14.6416V19.6181C79.0692 20.2357 79.1737 20.7828 79.3652 21.2945C79.5567 21.8063 79.8353 22.2298 80.1835 22.6004C80.5318 22.9534 80.9322 23.2357 81.4023 23.4122C81.8724 23.6063 82.3774 23.6945 82.8997 23.6945C83.8747 23.6945 84.693 23.4651 85.3372 23.0063C85.6158 22.8122 85.877 22.5828 86.1033 22.3181C86.3297 22.0534 86.556 21.7357 86.7824 21.3651V19.3004H85.1457C84.693 19.3004 84.3274 19.1416 84.014 18.8063C83.7006 18.4887 83.5439 18.1004 83.5439 17.6416C83.5439 17.2004 83.7006 16.8298 84.014 16.4945C84.31 16.1769 84.693 16.0004 85.1457 16.0004L88.1578 16.0357C88.5931 16.0357 88.9762 16.1945 89.307 16.5122C89.4463 16.6534 89.5681 16.8298 89.6552 17.0416C89.7423 17.2357 89.7945 17.4475 89.7945 17.6593V21.171C89.7945 21.3828 89.7771 21.6122 89.7423 21.8593C89.7074 22.1063 89.6726 22.3004 89.603 22.4593C88.9413 23.924 88.0534 25.0534 86.9042 25.8298C86.3297 26.2181 85.7029 26.5181 85.0238 26.7298C84.3448 26.9416 83.6484 27.0475 82.9171 27.0475C81.9247 27.0298 81.0019 26.8534 80.1313 26.4828Z" fill="#1A776F"/>
<path id="Vector_10" d="M93.7639 26.5358C93.4505 26.2358 93.2764 25.8475 93.2764 25.3887V8.924C93.2764 8.48282 93.4331 8.09459 93.7639 7.77694C94.0773 7.47694 94.4603 7.31812 94.8956 7.31812C95.3657 7.31812 95.7487 7.47694 96.0621 7.77694C96.3755 8.07694 96.5148 8.46517 96.5148 8.94164V25.424C96.5148 25.8828 96.3581 26.2711 96.0447 26.5711C95.7313 26.8887 95.3483 27.0475 94.8956 27.0475C94.4603 27.0122 94.0773 26.8534 93.7639 26.5358Z" fill="#1A776F"/>
<path id="Vector_11" d="M100.728 26.606C100.484 26.359 100.362 26.059 100.362 25.6884V8.62369C100.362 8.2531 100.484 7.9531 100.728 7.70604C100.972 7.45898 101.285 7.33545 101.633 7.33545C101.981 7.33545 102.295 7.45898 102.539 7.70604C102.782 7.9531 102.904 8.2531 102.904 8.62369V16.4413H111.575V8.62369C111.575 8.27074 111.697 7.97074 111.958 7.70604C112.219 7.45898 112.533 7.33545 112.881 7.33545C113.229 7.33545 113.542 7.45898 113.786 7.70604C114.03 7.9531 114.152 8.2531 114.152 8.62369V25.6884C114.152 26.059 114.03 26.359 113.769 26.606C113.508 26.8531 113.212 26.9766 112.846 26.9766C112.498 26.9766 112.184 26.8531 111.941 26.606C111.697 26.359 111.558 26.059 111.558 25.6884V19.0707H102.887V25.6884C102.887 26.059 102.765 26.359 102.521 26.606C102.277 26.8531 101.964 26.9766 101.616 26.9766C101.268 26.9766 100.989 26.8531 100.728 26.606Z" fill="#1A776F"/>
<path id="Vector_12" d="M122.022 26.5181C121.152 26.1651 120.403 25.6534 119.742 24.9828C119.08 24.3122 118.558 23.5534 118.192 22.6887C117.826 21.824 117.652 20.8887 117.652 19.9004V14.4122C117.652 13.424 117.826 12.4887 118.192 11.624C118.558 10.7593 119.08 9.98278 119.742 9.32984C120.403 8.6769 121.152 8.16514 122.022 7.8122C122.893 7.45925 123.816 7.26514 124.808 7.26514C125.783 7.26514 126.706 7.44161 127.577 7.8122C128.447 8.18278 129.213 8.6769 129.875 9.32984C130.536 10.0004 131.059 10.7593 131.424 11.624C131.79 12.4887 131.964 13.424 131.964 14.4122V19.9004C131.964 20.8887 131.79 21.824 131.424 22.6887C131.059 23.5534 130.536 24.3298 129.875 24.9828C129.213 25.6357 128.447 26.1475 127.577 26.5181C126.706 26.8887 125.783 27.0651 124.808 27.0651C123.816 27.0475 122.893 26.871 122.022 26.5181ZM126.584 24.0651C127.141 23.8357 127.611 23.5357 128.047 23.1298C128.465 22.724 128.795 22.2475 129.022 21.7004C129.248 21.1534 129.37 20.5534 129.37 19.9181V14.3945C129.37 13.7593 129.248 13.1769 129.022 12.6122C128.795 12.0475 128.465 11.5887 128.047 11.1828C127.629 10.7769 127.141 10.4593 126.584 10.2475C126.027 10.0181 125.435 9.9122 124.808 9.9122C124.181 9.9122 123.589 10.0181 123.032 10.2475C122.475 10.4769 122.005 10.7769 121.57 11.1828C121.152 11.5887 120.821 12.0651 120.595 12.6122C120.368 13.1593 120.246 13.7593 120.246 14.3945V19.9004C120.246 20.5357 120.368 21.1357 120.595 21.6828C120.821 22.2298 121.152 22.7063 121.57 23.1122C121.988 23.5181 122.475 23.8357 123.032 24.0475C123.589 24.2769 124.181 24.3828 124.808 24.3828C125.435 24.3828 126.027 24.2945 126.584 24.0651Z" fill="#1A776F"/>
<path id="Vector_13" d="M135.968 26.5C135.707 26.253 135.568 25.9177 135.568 25.4765C135.568 24.6824 136.072 24.2765 137.065 24.2765H142.706C143.02 24.2588 143.35 24.1883 143.664 24.0294C143.977 23.8706 144.273 23.6588 144.534 23.3765C144.795 23.0941 145.004 22.7765 145.144 22.4059C145.283 22.0353 145.37 21.6294 145.37 21.2059C145.37 20.3412 145.074 19.6177 144.465 19.0353C144.203 18.7706 143.907 18.5765 143.559 18.453C143.228 18.3118 142.88 18.2588 142.549 18.2588H140.199C139.433 18.2588 138.719 18.1353 138.057 17.8706C137.396 17.6059 136.804 17.253 136.299 16.7941C135.776 16.3177 135.376 15.753 135.097 15.1177C134.819 14.4647 134.68 13.7765 134.68 13.0177C134.68 12.2588 134.819 11.5177 135.115 10.8118C135.411 10.1059 135.794 9.5059 136.299 8.99414C136.804 8.48237 137.396 8.07649 138.075 7.79414C138.754 7.51178 139.45 7.37061 140.216 7.37061H145.405C145.875 7.37061 146.258 7.47649 146.519 7.7059C146.78 7.93531 146.92 8.23531 146.92 8.64119C146.92 9.08237 146.78 9.41766 146.519 9.64708C146.258 9.87649 145.875 10 145.405 10H139.694C139.05 10.053 138.493 10.3177 138.023 10.7941C137.796 11.0412 137.605 11.3412 137.465 11.7118C137.326 12.0647 137.256 12.453 137.256 12.8235C137.256 13.2294 137.326 13.6 137.465 13.9353C137.605 14.2706 137.796 14.5883 138.057 14.853C138.284 15.1177 138.562 15.3118 138.858 15.453C139.154 15.5941 139.468 15.6647 139.781 15.6647H142.271C143.037 15.6647 143.768 15.7883 144.465 16.053C145.161 16.3177 145.77 16.6883 146.293 17.1647C146.833 17.6588 147.25 18.2412 147.529 18.8941C147.808 19.5471 147.964 20.2706 147.964 21.0647C147.964 21.8588 147.825 22.5824 147.529 23.2883C147.233 23.9941 146.833 24.6118 146.293 25.1412C145.753 25.6883 145.144 26.1118 144.465 26.4118C143.786 26.7118 143.054 26.8706 142.288 26.8706H137.065C136.595 26.8706 136.229 26.7471 135.968 26.5Z" fill="#1A776F"/>
<path id="Vector_14" d="M155.678 26.6235C155.434 26.3765 155.312 26.0588 155.312 25.7059V9.94708H150.75C150.385 9.94708 150.089 9.82355 149.845 9.57649C149.601 9.32943 149.479 9.01178 149.479 8.65884C149.479 8.3059 149.601 7.98825 149.845 7.74119C150.089 7.49414 150.402 7.37061 150.75 7.37061H162.468C162.642 7.37061 162.816 7.4059 162.973 7.47649C163.13 7.54708 163.269 7.63531 163.391 7.75884C163.652 8.04119 163.774 8.34119 163.774 8.69413C163.774 9.06472 163.652 9.38237 163.391 9.61178C163.13 9.84119 162.834 9.98237 162.468 9.98237H157.854V25.7235C157.854 26.0941 157.732 26.3941 157.471 26.6412C157.21 26.8883 156.914 27.0118 156.548 27.0118C156.217 26.9941 155.921 26.8706 155.678 26.6235Z" fill="#1A776F"/>
</g>
<g id="Group_9">
<path id="Vector_15" d="M52.9001 39.9314C52.6389 39.8255 52.3952 39.6491 52.2037 39.455C51.9947 39.2608 51.838 39.0138 51.7336 38.7491C51.6291 38.4844 51.5594 38.202 51.5594 37.902V32.8903C51.5594 32.7491 51.6117 32.6255 51.7161 32.5197C51.8206 32.4138 51.9425 32.3608 52.0818 32.3608C52.2211 32.3608 52.3429 32.4138 52.4474 32.5197C52.5519 32.6255 52.6041 32.7491 52.6041 32.8903V37.8667C52.6041 38.0255 52.6389 38.1667 52.6912 38.3079C52.7434 38.4491 52.8305 38.5726 52.9349 38.6785C53.0394 38.7844 53.1613 38.8726 53.3006 38.9255C53.4399 38.9785 53.5965 39.0138 53.7532 39.0138C53.9099 39.0138 54.0492 38.9785 54.1885 38.9255C54.3278 38.8726 54.4497 38.7844 54.5542 38.6785C54.6586 38.5726 54.7457 38.4491 54.7979 38.3079C54.8501 38.1667 54.885 38.0255 54.885 37.8667V32.8903C54.885 32.7491 54.9372 32.6255 55.0417 32.5197C55.1461 32.4138 55.268 32.3608 55.4073 32.3608C55.564 32.3608 55.6859 32.4138 55.7904 32.5197C55.8948 32.6255 55.9471 32.7491 55.9471 32.8903V37.8667C55.9471 38.0255 55.9819 38.1667 56.0341 38.3079C56.0863 38.4491 56.1734 38.5726 56.2779 38.6785C56.3823 38.7844 56.5042 38.8726 56.6435 38.9255C56.7828 38.9785 56.9221 39.0138 57.0788 39.0138C57.2355 39.0138 57.3922 38.9785 57.5315 38.9255C57.6708 38.8726 57.7926 38.7844 57.8971 38.6785C58.0016 38.5726 58.0886 38.4491 58.1409 38.3079C58.1931 38.1667 58.2279 38.0255 58.2279 37.8667V32.8903C58.2279 32.7491 58.2801 32.6255 58.3846 32.5197C58.4891 32.4138 58.611 32.3608 58.7502 32.3608C58.8895 32.3608 59.0114 32.4138 59.1159 32.5197C59.2203 32.6255 59.2726 32.7491 59.2726 32.8903V37.902C59.2726 38.202 59.2203 38.4844 59.0985 38.7491C58.994 39.0138 58.8373 39.2608 58.6284 39.455C58.4194 39.6667 58.1931 39.8255 57.9145 39.9314C57.6533 40.0373 57.3574 40.1079 57.0614 40.1079C56.7305 40.1079 56.4346 40.0373 56.1386 39.8961C55.86 39.755 55.6162 39.5608 55.4073 39.3138C55.1984 39.5608 54.9546 39.755 54.6586 39.8961C54.38 40.0373 54.0667 40.1079 53.7358 40.1079C53.4399 40.1079 53.1613 40.055 52.9001 39.9314Z" fill="#4A4A4A"/>
<path id="Vector_16" d="M60.8052 39.8784C60.7181 39.7902 60.6659 39.6667 60.6659 39.5255V32.8902C60.6659 32.749 60.7181 32.6255 60.8226 32.5196C60.9271 32.4137 61.0489 32.3784 61.1882 32.3784H64.8794C65.0187 32.3784 65.1406 32.4314 65.2276 32.5196C65.3147 32.6078 65.3669 32.7314 65.3669 32.8902C65.3669 33.0314 65.3147 33.1549 65.2276 33.2608C65.1406 33.3667 65.0187 33.4196 64.8794 33.4196H61.6931V35.6431H64.0088C64.1481 35.6431 64.27 35.6961 64.3745 35.7843C64.4789 35.8725 64.5138 35.9961 64.5138 36.1372C64.5138 36.2784 64.4615 36.4019 64.3745 36.4902C64.2874 36.5784 64.1655 36.6314 64.0088 36.6314H61.6931V39.0137H64.8794C65.0187 39.0137 65.1406 39.0667 65.2276 39.1549C65.3147 39.2431 65.3669 39.3667 65.3669 39.5255C65.3669 39.6843 65.3147 39.8078 65.2276 39.8961C65.1406 39.9843 65.0187 40.0372 64.8794 40.0372H61.1534C61.0141 40.0196 60.8922 39.9667 60.8052 39.8784Z" fill="#4A4A4A"/>
<path id="Vector_17" d="M66.4282 39.8785C66.3238 39.7726 66.2889 39.6491 66.2889 39.5079V32.9079C66.2889 32.8373 66.2889 32.7667 66.3064 32.7314L66.3412 32.6608C66.376 32.5726 66.4456 32.502 66.5327 32.4491C66.6198 32.3961 66.7068 32.3608 66.7939 32.3608H69.5796C69.8582 32.3608 70.1368 32.4138 70.3806 32.5373C70.6243 32.6608 70.8507 32.802 71.0596 32.9961C71.4601 33.4197 71.669 33.9491 71.669 34.5844C71.669 34.8844 71.6168 35.1667 71.4949 35.4314C71.373 35.6961 71.2163 35.9255 71.0074 36.1197C71.2511 36.3314 71.46 36.5961 71.5993 36.8785C71.7386 37.1785 71.8083 37.4961 71.8083 37.8314C71.8083 38.1314 71.756 38.4138 71.6342 38.6785C71.5297 38.9432 71.373 39.1903 71.1641 39.3844C70.9725 39.5961 70.7288 39.755 70.4676 39.8608C70.2064 39.9667 69.9279 40.0373 69.6319 40.0373H66.7765C66.6546 40.0373 66.5327 39.9844 66.4282 39.8785ZM69.6319 35.6255C69.7712 35.6255 69.893 35.5903 70.0323 35.5373C70.1716 35.4844 70.2587 35.4138 70.3631 35.3079C70.4502 35.2197 70.5198 35.1138 70.5721 34.9903C70.6243 34.8667 70.6417 34.7432 70.6417 34.602C70.6417 34.4432 70.6069 34.2844 70.5547 34.1255C70.485 33.9667 70.4154 33.8432 70.3109 33.755C70.2064 33.6667 70.0846 33.5961 69.9453 33.5432C69.806 33.4903 69.6667 33.4726 69.51 33.4726H67.3336V35.6608L69.6319 35.6255ZM69.6493 38.9785C69.7886 38.9785 69.9279 38.9432 70.0672 38.8903C70.2064 38.8373 70.3283 38.7491 70.4154 38.6432C70.5198 38.5373 70.5895 38.4138 70.6417 38.2726C70.694 38.1314 70.7288 37.9903 70.7288 37.8314C70.7288 37.6726 70.694 37.5314 70.6417 37.3903C70.5895 37.2491 70.5024 37.1255 70.4154 37.0197C70.3109 36.9138 70.2064 36.8255 70.0672 36.7726C69.9279 36.7197 69.7886 36.6844 69.6493 36.6844H67.3336V38.9961L69.6493 38.9785Z" fill="#4A4A4A"/>
<path id="Vector_18" d="M77.3105 39.8962C76.9623 39.755 76.6663 39.5609 76.4226 39.2962C76.1614 39.0315 75.9525 38.7315 75.8132 38.3962C75.6739 38.0609 75.6042 37.6903 75.6042 37.3021V35.1491C75.6042 34.7609 75.6739 34.3903 75.8132 34.055C75.9525 33.7197 76.1614 33.4197 76.4226 33.155C76.6837 32.908 76.9797 32.6962 77.3105 32.555C77.6588 32.4138 78.007 32.3433 78.4074 32.3433C78.7905 32.3433 79.1561 32.4138 79.4869 32.555C79.8352 32.6962 80.1311 32.8903 80.3923 33.155C80.6535 33.4197 80.8624 33.7197 81.0017 34.055C81.141 34.3903 81.2106 34.7609 81.2106 35.1491V37.3021C81.2106 37.6903 81.141 38.0609 81.0017 38.3962C80.8624 38.7315 80.6535 39.0315 80.3923 39.2962C80.1311 39.5609 79.8352 39.755 79.4869 39.8962C79.1387 40.0374 78.7905 40.108 78.4074 40.108C78.007 40.108 77.6588 40.0374 77.3105 39.8962ZM79.1039 38.9433C79.3128 38.855 79.5043 38.7315 79.6785 38.5727C79.8526 38.4139 79.9744 38.2197 80.0615 38.008C80.1486 37.7962 80.2008 37.5668 80.2008 37.3021V35.1491C80.2008 34.9021 80.1486 34.6727 80.0615 34.4433C79.9744 34.2138 79.8526 34.0374 79.6785 33.8786C79.5043 33.7197 79.3302 33.5962 79.1039 33.508C78.8775 33.4197 78.6512 33.3844 78.4074 33.3844C78.1637 33.3844 77.9199 33.4197 77.711 33.508C77.5021 33.5962 77.3105 33.7197 77.1364 33.8786C76.9623 34.0374 76.8404 34.2315 76.7534 34.4433C76.6663 34.655 76.6141 34.8844 76.6141 35.1491V37.3021C76.6141 37.5491 76.6663 37.7786 76.7534 38.008C76.8404 38.2374 76.9623 38.4139 77.1364 38.5727C77.3105 38.7315 77.4847 38.855 77.711 38.9433C77.9373 39.0315 78.1637 39.0668 78.4074 39.0668C78.6512 39.0668 78.8775 39.0315 79.1039 38.9433Z" fill="#4A4A4A"/>
<path id="Vector_19" d="M82.7954 39.9314C82.7084 39.8431 82.6561 39.7196 82.6561 39.5784V32.8725C82.6561 32.749 82.691 32.6431 82.778 32.5372C82.8651 32.4314 83.0044 32.3784 83.1611 32.3784H86.8348C86.9741 32.3784 87.096 32.4314 87.183 32.5196C87.2701 32.6255 87.3223 32.7314 87.3223 32.8902C87.3223 33.049 87.2701 33.1725 87.183 33.2608C87.096 33.3667 86.9741 33.4019 86.8174 33.4019H83.6486V36.0137H85.8598C85.9991 36.0137 86.1209 36.0667 86.2254 36.1549C86.3299 36.2431 86.3647 36.3667 86.3647 36.5255C86.3647 36.6667 86.3125 36.7725 86.2254 36.8784C86.1384 36.9843 85.9991 37.0196 85.8598 37.0196H83.6486V39.5784C83.6486 39.7196 83.5963 39.8431 83.4919 39.949C83.3874 40.0372 83.2655 40.0902 83.1262 40.0902C83.0218 40.0725 82.8999 40.0372 82.7954 39.9314Z" fill="#4A4A4A"/>
<path id="Vector_20" d="M90.9957 39.8962C90.8912 39.7904 90.839 39.6845 90.839 39.5433V32.8904C90.839 32.7492 90.8912 32.6256 90.9957 32.5374C91.1002 32.4315 91.222 32.3962 91.3439 32.3962H93.4855C93.8685 32.3962 94.2342 32.4668 94.565 32.5904C94.8958 32.7315 95.1918 32.908 95.4355 33.1551C95.6793 33.4021 95.8708 33.7021 96.0101 34.0551C96.1494 34.408 96.219 34.7786 96.219 35.1668V37.3198C96.219 37.708 96.1494 38.0786 96.0101 38.4139C95.8708 38.7492 95.6793 39.0492 95.4355 39.2962C95.1918 39.5433 94.8958 39.7374 94.565 39.8609C94.2342 40.0021 93.8685 40.0551 93.4855 40.0551H91.3439C91.222 40.0374 91.1002 39.9845 90.9957 39.8962ZM93.5029 39.0139C93.7466 39.0139 93.9904 38.9786 94.1993 38.8904C94.4083 38.8021 94.5998 38.6962 94.7391 38.5374C94.8958 38.3786 95.0177 38.2021 95.0873 37.9904C95.1744 37.7786 95.2092 37.5492 95.2092 37.3021V35.1492C95.2092 34.9021 95.1744 34.6551 95.0873 34.4433C95.0003 34.2139 94.8784 34.0374 94.7391 33.8786C94.5824 33.7198 94.4083 33.6139 94.1993 33.5257C93.9904 33.4551 93.7466 33.4021 93.5029 33.4021H91.8663V39.0139H93.5029Z" fill="#4A4A4A"/>
<path id="Vector_21" d="M97.6644 39.9313C97.5599 39.8254 97.5077 39.7195 97.5077 39.5783V32.8901C97.5077 32.7489 97.5599 32.6254 97.6644 32.5372C97.7689 32.4313 97.8907 32.396 98.0126 32.396C98.1519 32.396 98.2738 32.4489 98.3782 32.5372C98.4827 32.6254 98.535 32.7489 98.535 32.8901V39.5783C98.535 39.7195 98.4827 39.8431 98.3782 39.9313C98.2738 40.0195 98.1519 40.0725 98.0126 40.0725C97.8907 40.0725 97.7689 40.0372 97.6644 39.9313Z" fill="#4A4A4A"/>
<path id="Vector_22" d="M101.669 39.8962C101.338 39.755 101.042 39.5433 100.798 39.2786C100.554 39.0139 100.363 38.7138 100.224 38.3609C100.084 38.008 100.015 37.6374 100.015 37.2491V35.2197C100.015 34.8315 100.084 34.4609 100.224 34.108C100.363 33.755 100.554 33.455 100.798 33.1903C101.042 32.9256 101.338 32.7139 101.669 32.5727C102 32.4315 102.348 32.3433 102.731 32.3433C103.288 32.3433 103.793 32.4844 104.211 32.7491C104.576 32.9962 104.89 33.3139 105.134 33.7197C105.203 33.8256 105.238 33.9491 105.238 34.055C105.238 34.1786 105.186 34.3021 105.081 34.408C104.977 34.5138 104.855 34.5668 104.716 34.5668C104.542 34.5668 104.42 34.4962 104.35 34.3727C104.159 34.055 103.967 33.808 103.741 33.6491C103.462 33.4727 103.131 33.3844 102.713 33.3844C102.47 33.3844 102.243 33.4374 102.034 33.5256C101.825 33.6138 101.651 33.755 101.495 33.9138C101.338 34.0727 101.233 34.2668 101.146 34.4962C101.059 34.7256 101.024 34.955 101.024 35.2021V37.2315C101.024 37.4786 101.059 37.708 101.146 37.9374C101.233 38.1668 101.355 38.3433 101.512 38.5197C101.669 38.6962 101.843 38.8197 102.052 38.9256C102.261 39.0139 102.487 39.0668 102.748 39.0668C103.149 39.0668 103.497 38.9609 103.81 38.7668C104.054 38.5903 104.263 38.3433 104.454 38.0256V36.9668H103.619C103.479 36.9668 103.358 36.9139 103.271 36.808C103.183 36.7021 103.131 36.5786 103.131 36.4374C103.131 36.2962 103.183 36.1727 103.271 36.0844C103.375 35.9786 103.479 35.9256 103.619 35.9256H104.89C105.029 35.9256 105.151 35.9786 105.255 36.0668C105.36 36.155 105.412 36.2786 105.412 36.4374V37.9374C105.412 38.008 105.412 38.0962 105.395 38.1844C105.377 38.2727 105.36 38.3256 105.342 38.3786C105.081 38.9256 104.733 39.3315 104.298 39.6315C103.845 39.9491 103.34 40.0903 102.766 40.0903C102.365 40.108 102 40.0374 101.669 39.8962Z" fill="#4A4A4A"/>
<path id="Vector_23" d="M106.927 39.9313C106.823 39.8254 106.77 39.7195 106.77 39.5783V32.8901C106.77 32.7489 106.823 32.6254 106.927 32.5372C107.032 32.4313 107.153 32.396 107.275 32.396C107.415 32.396 107.536 32.4489 107.641 32.5372C107.745 32.6254 107.798 32.7489 107.798 32.8901V39.5783C107.798 39.7195 107.745 39.8431 107.641 39.9313C107.536 40.0195 107.415 40.0725 107.275 40.0725C107.136 40.0725 107.014 40.0372 106.927 39.9313Z" fill="#4A4A4A"/>
<path id="Vector_24" d="M111.21 39.9314C111.123 39.8255 111.071 39.7197 111.071 39.5608V33.3844H109.277C109.138 33.3844 109.016 33.3314 108.912 33.2432C108.807 33.155 108.772 33.0314 108.772 32.8726C108.772 32.7138 108.825 32.6079 108.912 32.502C108.999 32.3961 109.121 32.3608 109.277 32.3608H113.874C113.944 32.3608 114.013 32.3785 114.065 32.3961C114.118 32.4138 114.187 32.4667 114.222 32.502C114.327 32.6079 114.379 32.7314 114.379 32.8726C114.379 33.0138 114.327 33.1373 114.222 33.2432C114.118 33.3314 113.996 33.3844 113.857 33.3844H112.046V39.5608C112.046 39.702 111.994 39.8255 111.889 39.9314C111.785 40.0373 111.663 40.0726 111.523 40.0726C111.419 40.0903 111.297 40.0373 111.21 39.9314Z" fill="#4A4A4A"/>
<path id="Vector_25" d="M114.571 39.9315C114.466 39.8256 114.414 39.7021 114.414 39.5609V35.2374C114.414 34.8491 114.466 34.4786 114.588 34.1256C114.71 33.7727 114.884 33.4727 115.11 33.208C115.354 32.9433 115.633 32.7315 115.964 32.5727C116.294 32.4315 116.677 32.3433 117.078 32.3433C117.513 32.3433 117.896 32.4139 118.244 32.5727C118.593 32.7315 118.889 32.9256 119.132 33.208C119.376 33.4727 119.55 33.7903 119.672 34.1609C119.794 34.5315 119.864 34.9197 119.864 35.3256V39.5433C119.864 39.6844 119.811 39.808 119.707 39.9138C119.602 40.0021 119.481 40.055 119.341 40.055C119.185 40.055 119.063 40.0021 118.958 39.9138C118.854 39.8256 118.802 39.6844 118.802 39.5433V37.8138H115.424V39.5433C115.424 39.6844 115.372 39.808 115.267 39.9138C115.163 40.0197 115.041 40.055 114.884 40.055C114.78 40.0727 114.658 40.0197 114.571 39.9315ZM118.836 36.7727V35.3609C118.836 35.0786 118.802 34.8138 118.714 34.5844C118.627 34.3374 118.523 34.1433 118.366 33.9668C118.21 33.7903 118.035 33.6668 117.827 33.5609C117.618 33.455 117.374 33.4197 117.13 33.4197C116.625 33.4197 116.225 33.5962 115.929 33.9315C115.772 34.0903 115.668 34.3021 115.598 34.5315C115.528 34.7609 115.476 35.0256 115.476 35.3256V36.7727H118.836Z" fill="#4A4A4A"/>
<path id="Vector_26" d="M121.796 40.0373C121.656 40.0197 121.569 39.9667 121.482 39.8608C121.395 39.7726 121.36 39.6491 121.36 39.5255V32.8726C121.36 32.7314 121.412 32.6079 121.5 32.502C121.587 32.3961 121.708 32.3608 121.865 32.3608C122.022 32.3608 122.126 32.4138 122.231 32.502C122.335 32.5903 122.387 32.7138 122.387 32.8726V38.9961H125.574C125.713 38.9961 125.835 39.0491 125.922 39.1373C126.009 39.2255 126.061 39.3491 126.061 39.4903C126.061 39.6491 126.009 39.7726 125.922 39.8608C125.835 39.9491 125.713 40.002 125.574 40.002L121.796 40.0373Z" fill="#4A4A4A"/>
<path id="Vector_27" d="M131.129 39.9314C130.867 39.8255 130.624 39.6491 130.432 39.455C130.223 39.2608 130.067 39.0138 129.962 38.7491C129.858 38.4844 129.788 38.202 129.788 37.902V32.8903C129.788 32.7491 129.84 32.6255 129.945 32.5197C130.049 32.4138 130.171 32.3608 130.31 32.3608C130.45 32.3608 130.571 32.4138 130.676 32.5197C130.78 32.6255 130.833 32.7491 130.833 32.8903V37.8667C130.833 38.0255 130.867 38.1667 130.92 38.3079C130.972 38.4491 131.059 38.5726 131.163 38.6785C131.268 38.7844 131.39 38.8726 131.529 38.9255C131.668 38.9785 131.825 39.0138 131.982 39.0138C132.138 39.0138 132.278 38.9785 132.417 38.9255C132.556 38.8726 132.678 38.7844 132.783 38.6785C132.887 38.5726 132.974 38.4491 133.026 38.3079C133.079 38.1667 133.113 38.0255 133.113 37.8667V32.8903C133.113 32.7491 133.166 32.6255 133.27 32.5197C133.375 32.4138 133.497 32.3608 133.636 32.3608C133.793 32.3608 133.914 32.4138 134.019 32.5197C134.123 32.6255 134.176 32.7491 134.176 32.8903V37.8667C134.176 38.0255 134.21 38.1667 134.263 38.3079C134.315 38.4491 134.402 38.5726 134.506 38.6785C134.611 38.7844 134.733 38.8726 134.872 38.9255C135.011 38.9785 135.151 39.0138 135.307 39.0138C135.464 39.0138 135.621 38.9785 135.76 38.9255C135.899 38.8726 136.021 38.7844 136.126 38.6785C136.23 38.5726 136.317 38.4491 136.369 38.3079C136.422 38.1667 136.456 38.0255 136.456 37.8667V32.8903C136.456 32.7491 136.509 32.6255 136.613 32.5197C136.718 32.4138 136.839 32.3608 136.979 32.3608C137.118 32.3608 137.24 32.4138 137.344 32.5197C137.449 32.6255 137.501 32.7491 137.501 32.8903V37.902C137.501 38.202 137.449 38.4844 137.327 38.7491C137.223 39.0138 137.066 39.2608 136.857 39.455C136.648 39.6667 136.422 39.8255 136.143 39.9314C135.882 40.0373 135.586 40.1079 135.29 40.1079C134.959 40.1079 134.663 40.0373 134.367 39.8961C134.089 39.755 133.845 39.5608 133.636 39.3138C133.427 39.5608 133.183 39.755 132.887 39.8961C132.609 40.0373 132.295 40.1079 131.964 40.1079C131.668 40.1079 131.39 40.055 131.129 39.9314Z" fill="#4A4A4A"/>
<path id="Vector_28" d="M140.53 39.8962C140.182 39.755 139.886 39.5609 139.642 39.2962C139.381 39.0315 139.172 38.7315 139.033 38.3962C138.894 38.0609 138.824 37.6903 138.824 37.3021V35.1491C138.824 34.7609 138.894 34.3903 139.033 34.055C139.172 33.7197 139.381 33.4197 139.642 33.155C139.903 32.908 140.199 32.6962 140.53 32.555C140.878 32.4138 141.227 32.3433 141.627 32.3433C142.01 32.3433 142.376 32.4138 142.707 32.555C143.055 32.6962 143.351 32.8903 143.612 33.155C143.873 33.4197 144.082 33.7197 144.221 34.055C144.361 34.3903 144.43 34.7609 144.43 35.1491V37.3021C144.43 37.6903 144.361 38.0609 144.221 38.3962C144.082 38.7315 143.873 39.0315 143.612 39.2962C143.351 39.5609 143.055 39.755 142.707 39.8962C142.358 40.0374 142.01 40.108 141.627 40.108C141.244 40.108 140.878 40.0374 140.53 39.8962ZM142.324 38.9433C142.533 38.855 142.724 38.7315 142.898 38.5727C143.055 38.4139 143.194 38.2197 143.281 38.008C143.368 37.7962 143.421 37.5668 143.421 37.3021V35.1491C143.421 34.9021 143.368 34.6727 143.281 34.4433C143.194 34.2138 143.072 34.0374 142.898 33.8786C142.741 33.7197 142.55 33.5962 142.324 33.508C142.097 33.4197 141.871 33.3844 141.627 33.3844C141.383 33.3844 141.14 33.4197 140.931 33.508C140.722 33.5962 140.53 33.7197 140.356 33.8786C140.199 34.0374 140.06 34.2315 139.973 34.4433C139.886 34.655 139.834 34.8844 139.834 35.1491V37.3021C139.834 37.5491 139.886 37.7786 139.973 38.008C140.06 38.2197 140.182 38.4139 140.356 38.5727C140.513 38.7315 140.704 38.855 140.931 38.9433C141.157 39.0315 141.383 39.0668 141.627 39.0668C141.871 39.0668 142.097 39.0315 142.324 38.9433Z" fill="#4A4A4A"/>
<path id="Vector_29" d="M145.98 39.8963C145.876 39.8081 145.841 39.6845 145.841 39.5434V32.8904C145.841 32.7492 145.893 32.6257 145.98 32.5198C146.067 32.414 146.189 32.3787 146.346 32.3787H148.418C148.801 32.3787 149.149 32.4492 149.48 32.5904C149.81 32.7316 150.106 32.9257 150.368 33.1728C150.629 33.4198 150.82 33.7198 150.96 34.0728C151.099 34.4257 151.168 34.7787 151.168 35.1669C151.168 35.4845 151.116 35.7845 151.012 36.0669C150.907 36.3492 150.768 36.614 150.594 36.8257C150.42 37.0375 150.193 37.2492 149.95 37.4081C149.706 37.5669 149.427 37.6904 149.149 37.761L150.559 39.1728C150.664 39.2787 150.716 39.4022 150.716 39.5434C150.716 39.614 150.698 39.6669 150.681 39.7375C150.646 39.8081 150.611 39.861 150.577 39.8963C150.472 40.0022 150.35 40.0551 150.211 40.0551C150.072 40.0551 149.95 40.0022 149.863 39.8963L147.826 37.8492H146.851V39.5434C146.851 39.6845 146.798 39.8081 146.711 39.8963C146.624 39.9845 146.502 40.0375 146.346 40.0375C146.206 40.0375 146.084 40.0022 145.98 39.8963ZM148.435 36.8081C148.679 36.8081 148.922 36.7728 149.131 36.6845C149.34 36.5963 149.532 36.4728 149.689 36.3316C149.845 36.1904 149.967 35.9963 150.054 35.8022C150.141 35.6081 150.176 35.3963 150.176 35.1669C150.176 34.9375 150.124 34.7081 150.037 34.4963C149.95 34.2845 149.828 34.0904 149.671 33.9316C149.514 33.7728 149.323 33.6492 149.114 33.561C148.905 33.4728 148.679 33.4198 148.435 33.4198H146.851V36.8257L148.435 36.8081Z" fill="#4A4A4A"/>
<path id="Vector_30" d="M152.736 40.0373C152.597 40.0197 152.51 39.9667 152.423 39.8608C152.335 39.7726 152.301 39.6491 152.301 39.5255V32.8726C152.301 32.7314 152.353 32.6079 152.44 32.502C152.527 32.3961 152.649 32.3608 152.806 32.3608C152.962 32.3608 153.067 32.4138 153.171 32.502C153.276 32.5903 153.328 32.7138 153.328 32.8726V38.9961H156.514C156.653 38.9961 156.775 39.0491 156.862 39.1373C156.949 39.2255 157.002 39.3491 157.002 39.4903C157.002 39.6491 156.949 39.7726 156.862 39.8608C156.775 39.9491 156.653 40.002 156.514 40.002L152.736 40.0373Z" fill="#4A4A4A"/>
<path id="Vector_31" d="M158.325 39.8962C158.22 39.7904 158.168 39.6845 158.168 39.5433V32.8904C158.168 32.7492 158.22 32.6256 158.325 32.5374C158.429 32.4315 158.551 32.3962 158.673 32.3962H160.814C161.197 32.3962 161.563 32.4668 161.894 32.5904C162.225 32.7315 162.521 32.908 162.764 33.1551C163.008 33.4021 163.2 33.7021 163.339 34.0551C163.478 34.408 163.548 34.7786 163.548 35.1668V37.3198C163.548 37.708 163.478 38.0786 163.339 38.4139C163.2 38.7492 163.008 39.0492 162.764 39.2962C162.521 39.5433 162.225 39.7374 161.894 39.8609C161.563 40.0021 161.197 40.0551 160.814 40.0551H158.673C158.533 40.0374 158.429 39.9845 158.325 39.8962ZM160.814 39.0139C161.058 39.0139 161.302 38.9786 161.511 38.8904C161.72 38.8021 161.911 38.6962 162.051 38.5374C162.207 38.3786 162.329 38.2021 162.399 37.9904C162.486 37.7786 162.521 37.5492 162.521 37.3021V35.1492C162.521 34.9021 162.486 34.6551 162.399 34.4433C162.312 34.2139 162.19 34.0374 162.051 33.8786C161.894 33.7198 161.72 33.6139 161.511 33.5257C161.302 33.4551 161.058 33.4021 160.814 33.4021H159.178V39.0139H160.814Z" fill="#4A4A4A"/>
</g>
<g id="Group_10">
<path id="Vector_32" d="M166.543 4.95351L166.02 4.05351H165.672V4.95351H165.394V2.72998H166.09C166.247 2.72998 166.386 2.76527 166.508 2.81822C166.63 2.87116 166.699 2.95939 166.769 3.04763C166.821 3.15351 166.856 3.25939 166.856 3.38292C166.856 3.54175 166.821 3.66527 166.734 3.7888C166.647 3.91233 166.525 3.98292 166.351 4.01822L166.891 4.95351H166.543ZM165.672 3.80645H166.09C166.247 3.80645 166.369 3.77116 166.438 3.68292C166.508 3.61233 166.56 3.50645 166.56 3.36527C166.56 3.24175 166.525 3.13586 166.438 3.06527C166.369 2.99469 166.247 2.95939 166.09 2.95939H165.672V3.80645Z" fill="black"/>
</g>
<path id="Vector_33" d="M165.079 1.51309C166.35 0.930733 167.83 1.51309 168.405 2.78367C168.98 4.05426 168.405 5.57191 167.151 6.15426C165.898 6.73662 164.4 6.15426 163.826 4.88367C163.251 3.59544 163.826 2.09544 165.079 1.51309ZM166.995 5.83662C168.092 5.3425 168.579 4.03662 168.074 2.9425C167.569 1.84838 166.298 1.33662 165.219 1.84838C164.139 2.36014 163.634 3.64838 164.139 4.7425C164.627 5.83662 165.915 6.33073 166.995 5.83662Z" fill="black"/>
</g>
</g>
</g>
</g>
</svg>
