<svg width="221" height="233" viewBox="0 0 221 233" fill="none" xmlns="http://www.w3.org/2000/svg">
<g id="Isolation_Mode" clip-path="url(#clip0_78_66006)">
<path id="Vector" fill-rule="evenodd" clip-rule="evenodd" d="M289.352 39.4396L174.528 126.957C174.528 126.957 170.892 150.189 155.911 167.536C140.931 184.882 88.6656 186.935 88.6656 186.935C88.6656 186.935 64.313 180.955 58.1672 158.971C52.0215 136.987 48.0812 125.628 48.0812 125.628C48.0812 125.628 35.2809 110.59 35.855 100.119C36.4291 89.6487 58.6051 78.858 58.6051 78.858C58.6051 78.858 61.0454 62.2412 74.7113 62.664C88.3772 63.0869 93.6443 67.2976 93.6443 67.2976C93.6443 67.2976 101.501 56.653 112.354 56.1159C123.207 55.5787 141.266 72.8347 141.266 72.8347L253.876 30.7279L289.352 39.4396Z" fill="#CCCCCC"/>
<path id="Vector_2" fill-rule="evenodd" clip-rule="evenodd" d="M85.2413 181.58C85.2413 181.58 108.381 180.032 112.664 170.863L116.939 161.69C116.939 161.69 135.572 169.94 146.307 159.711C157.042 149.482 144.916 130.616 144.916 130.616L287.162 38.9013L287.271 38.9282L284.173 49.3015L181.78 132.76C181.78 132.76 184.721 143.367 183.305 149.061C181.888 154.754 176.1 158.169 176.1 158.169C176.1 158.169 175.228 170.313 172.705 175.387C170.182 180.461 153.848 192.699 144.015 189.236C134.182 185.773 132.109 184.832 132.109 184.832C132.109 184.832 96.0264 195.378 92.6079 191.9C89.1893 188.422 85.2406 181.583 85.2406 181.583L85.2413 181.58Z" fill="#CCCCCC"/>
<path id="Vector_3" fill-rule="evenodd" clip-rule="evenodd" d="M134.344 184.436C134.344 184.436 102.564 201.554 72.476 189.445C42.3883 177.337 48.2788 123.253 48.2788 123.253C48.2788 123.253 59.901 198.487 134.344 184.436Z" fill="#CCCCCC"/>
<path id="Vector_4" d="M125.015 178.412C125.015 178.412 135.934 197.683 158.038 191.686C180.142 185.689 176.1 158.168 176.1 158.168C176.1 158.168 167.985 202.815 125.015 178.412Z" stroke="#CCCCCC" stroke-width="0.23" stroke-miterlimit="10"/>
<path id="Vector_5" d="M165.736 160.695C165.736 160.695 182.368 162.091 186.208 150.429C190.049 138.766 178.441 129.302 178.441 129.302C178.441 129.302 191.526 154.279 165.724 160.693L165.736 160.695Z" stroke="#CCCCCC" stroke-width="0.23" stroke-miterlimit="10"/>
<path id="Vector_6" d="M59.9627 135.572C59.9627 135.572 37.9064 130.91 32.9464 106.52C27.9865 82.1288 58.6256 78.8628 58.6256 78.8628C58.6256 78.8628 16.9452 99.3036 59.9774 135.576L59.9627 135.572Z" stroke="#CCCCCC" stroke-width="0.23" stroke-miterlimit="10"/>
<path id="Vector_7" d="M294.433 40.6886L173.381 142.4L169.748 135.616L293.671 40.5016" stroke="#CCCCCC" stroke-width="0.23" stroke-miterlimit="10"/>
<path id="Vector_8" fill-rule="evenodd" clip-rule="evenodd" d="M264.592 33.3596L165.036 109.241C165.036 109.241 161.389 132.467 146.412 149.815C131.434 167.162 79.1541 169.224 79.1541 169.224C79.1541 169.224 54.8016 163.244 48.6654 141.259C42.5292 119.275 38.5904 107.922 38.5904 107.922C38.5904 107.922 25.7813 92.8814 26.3561 82.4081C26.9309 71.9347 49.1062 61.1469 49.1062 61.1469C49.1062 61.1469 51.5376 44.5279 65.2184 44.9669C78.8991 45.4059 84.1454 49.5865 84.1454 49.5865C84.1454 49.5865 92.0084 38.9559 102.855 38.4077C113.701 37.8596 131.762 55.1317 131.762 55.1317L219.554 22.2998L264.592 33.3596Z" fill="white"/>
<path id="Vector_9" fill-rule="evenodd" clip-rule="evenodd" d="M75.7431 163.854C75.7431 163.854 98.883 162.306 103.164 153.146L107.456 143.98C107.456 143.98 126.092 152.219 136.817 141.991C147.542 131.762 135.424 112.901 135.424 112.901L260.385 32.3269L270.671 34.8526L172.288 115.045C172.288 115.045 175.222 125.647 173.816 131.334C172.41 137.021 166.603 140.44 166.603 140.44C166.603 140.44 165.748 152.588 163.213 157.672C160.678 162.756 144.348 174.979 134.524 171.521C124.699 168.063 122.619 167.114 122.619 167.114C122.619 167.114 86.515 177.656 83.1082 174.18C79.7014 170.705 75.7431 163.854 75.7431 163.854Z" fill="#DBDEDE"/>
<path id="Vector_10" fill-rule="evenodd" clip-rule="evenodd" d="M124.855 166.715C124.855 166.715 93.0651 183.831 62.9922 171.726C32.9192 159.62 38.7839 105.54 38.7839 105.54C38.7839 105.54 50.412 180.763 124.867 166.717L124.855 166.715Z" fill="#1B776F"/>
<path id="Vector_11" fill-rule="evenodd" clip-rule="evenodd" d="M115.514 160.695C115.514 160.695 126.437 179.949 148.548 173.959C170.66 167.97 166.602 140.439 166.602 140.439C166.602 140.439 158.481 185.113 115.514 160.695Z" fill="#1B776F"/>
<path id="Vector_12" fill-rule="evenodd" clip-rule="evenodd" d="M156.244 142.98C156.244 142.98 172.869 144.367 176.71 132.702C180.552 121.037 168.949 111.589 168.949 111.589C168.949 111.589 182.046 136.557 156.233 142.977L156.244 142.98Z" fill="#1B776F"/>
<path id="Vector_13" fill-rule="evenodd" clip-rule="evenodd" d="M50.4727 117.852C50.4727 117.852 28.4082 113.185 23.4572 88.7965C18.5061 64.4078 49.1215 61.136 49.1215 61.136C49.1215 61.136 7.42721 81.5953 50.4727 117.852Z" fill="#1B776F"/>
<path id="Vector_14" fill-rule="evenodd" clip-rule="evenodd" d="M46.126 67.1266C46.126 67.1266 44.6488 50.1206 59.9351 43.4476C75.2215 36.7747 86.846 52.5852 86.846 52.5852C86.846 52.5852 60.3915 34.7952 46.126 67.1266Z" fill="#1B776F"/>
<path id="Vector_15" fill-rule="evenodd" clip-rule="evenodd" d="M133.706 66.6032C133.706 66.6032 136.457 44.6663 115.124 36.2943C93.7911 27.9224 80.5824 52.4061 80.5824 52.4061C80.5824 52.4061 113.811 21.4383 133.706 66.6032Z" fill="#1B776F"/>
<path id="Vector_16" fill-rule="evenodd" clip-rule="evenodd" d="M142.924 150.977C142.924 150.977 154.644 151.955 157.344 143.738C160.045 135.52 151.868 128.858 151.868 128.858C151.868 128.858 161.095 146.462 142.923 150.98L142.924 150.977Z" fill="#1B776F"/>
<path id="Vector_17" fill-rule="evenodd" clip-rule="evenodd" d="M54.7586 98.8173C54.7586 98.8173 43.7646 102.976 44.8747 111.559C45.9848 120.142 56.242 122.63 56.242 122.63C56.242 122.63 40.3185 110.725 54.7527 98.8158L54.7586 98.8173Z" fill="#1B776F"/>
<path id="Vector_18" fill-rule="evenodd" clip-rule="evenodd" d="M163.891 124.677L270.768 34.8761L268.985 34.4383L160.256 117.899L163.891 124.677Z" fill="#1B776F"/>
<path id="Vector_19" fill-rule="evenodd" clip-rule="evenodd" d="M104.298 62.8527L218.03 21.926L227.911 24.3524L124.58 72.3939L104.298 62.8527Z" fill="#1B776F"/>
<path id="Vector_20" fill-rule="evenodd" clip-rule="evenodd" d="M96.4485 97.2051L239.546 27.2106L236.641 26.4973L101.634 84.2205L96.4485 97.2051Z" fill="#DBDEDE"/>
</g>
<defs>
<clipPath id="clip0_78_66006">
<rect width="254.052" height="198" fill="white" transform="translate(47.7417 -19.9126) rotate(13.7968)"/>
</clipPath>
</defs>
</svg>
