<svg width="13" height="25" viewBox="0 0 13 25" fill="none" xmlns="http://www.w3.org/2000/svg">
<path d="M11.2516 11.8704L11.0025 12.2084L10.6394 12.4343L10.22 12.4071L9.80063 12.3815L9.37964 12.3542L8.96025 12.4936L8.53926 12.4087L8.19219 12.6154L8.01383 12.963L7.93831 13.4293L7.97848 13.8971L8.05079 14.3633L7.98651 14.8295L8.03954 15.2957L7.93349 15.77L7.91581 16.2362L8.054 16.704L7.94474 17.1702L7.97687 17.6364L7.95598 18.1043V18.5705L8.01222 19.0367V19.5045L7.91903 19.9723L7.96723 20.4385L7.97848 20.9048L7.91903 21.3726L8.04597 21.8404L8.07489 22.3066L7.98973 22.776L7.94152 23.2439L7.78084 23.5787L7.44501 23.7517L6.99028 23.8334L6.53394 23.7549L6.0792 23.787H5.62447L5.16973 23.8126L4.71339 23.8495L4.25705 23.7581L3.80071 23.8447L3.36365 23.6844L3.25921 23.2487L3.17726 22.7825L3.30259 22.3146L3.17405 21.8484L3.28974 21.3774L3.27688 20.9112V20.445L3.31545 19.9787L3.25278 19.5109V19.0447V18.5785V18.1107L3.17244 17.6444L3.30902 17.1782L3.26082 16.7104L3.29134 16.2426L3.2094 15.77L3.21743 15.3037L3.17726 14.8359L3.22707 14.3681L3.24314 13.9003V13.4325L3.2094 12.9646L3.06478 12.5994L2.69842 12.4968L2.31278 12.3574L1.92714 12.492L1.5415 12.3767L1.19764 12.2165L1 11.8736L1.04178 11.393L1.00643 10.9123L1.03696 10.4317L1.05463 9.95105L1.04338 9.47042L1.06749 8.98978L1.1173 8.57163L1.53668 8.39059H1.92232L2.30796 8.42263H2.6936L3.09852 8.30407L3.24796 7.90034L3.18047 7.38926L3.23189 6.87658L3.16762 6.3623L3.19172 5.84962L3.20297 5.39783L3.32348 4.95884L3.38936 4.51506L3.47774 4.07287L3.64646 3.65472L3.83285 3.24457L4.07548 2.86487L4.32293 2.48357L4.72143 2.24325L5.05726 1.92603L5.39469 1.62483L5.79319 1.41335L6.23828 1.32042L6.67855 1.24673L7.10115 1.04967L7.55106 1H8.0058L8.49909 1.0721L8.99239 1.10574L9.48569 1.04166L9.97899 1.05287L10.4739 1L10.9672 1.12016L11.3769 1.18264L11.5649 1.59118L11.4396 2.0574L11.5151 2.52522V2.99144L11.5328 3.45926L11.5714 3.92708L11.4894 4.3949L11.3994 4.82106L10.972 4.9989L10.4739 4.94282L9.97417 4.96525L9.47444 5.0021L8.97311 4.97807L8.57944 5.06458L8.24361 5.27767L8.0315 5.62533V6.04028L7.91581 6.49368L7.9833 6.94708L7.90135 7.40208L8.04757 7.85708L8.17451 8.19994L8.51837 8.38899H9.02131L9.52425 8.45467L10.0272 8.42744L10.5301 8.46108L11.0347 8.4002L11.3978 8.56041L11.5585 8.94172L11.446 9.42236L11.4541 9.91581L11.3641 10.3964L11.3368 10.8867L11.3255 11.3785L11.2516 11.8704Z" fill="white"/>
<path d="M11.2516 11.8704L11.0025 12.2084L10.6394 12.4343L10.22 12.4071L9.80063 12.3815L9.37964 12.3542L8.96025 12.4936L8.53926 12.4087L8.19219 12.6154L8.01383 12.963L7.93831 13.4293L7.97848 13.8971L8.05079 14.3633L7.98651 14.8295L8.03954 15.2957L7.93349 15.77L7.91581 16.2362L8.054 16.704L7.94474 17.1702L7.97687 17.6364L7.95598 18.1043V18.5705L8.01222 19.0367V19.5045L7.91903 19.9723L7.96723 20.4385L7.97848 20.9048L7.91903 21.3726L8.04597 21.8404L8.07489 22.3066L7.98973 22.776L7.94152 23.2439L7.78084 23.5787L7.44501 23.7517L6.99028 23.8334L6.53394 23.7549L6.0792 23.787H5.62447L5.16973 23.8126L4.71339 23.8495L4.25705 23.7581L3.80071 23.8447L3.36365 23.6844L3.25921 23.2487L3.17726 22.7825L3.30259 22.3146L3.17405 21.8484L3.28974 21.3774L3.27688 20.9112V20.445L3.31545 19.9787L3.25278 19.5109V19.0447V18.5785V18.1107L3.17244 17.6444L3.30902 17.1782L3.26082 16.7104L3.29134 16.2426L3.2094 15.77L3.21743 15.3037L3.17726 14.8359L3.22707 14.3681L3.24314 13.9003V13.4325L3.2094 12.9646L3.06478 12.5994L2.69842 12.4968L2.31278 12.3574L1.92714 12.492L1.5415 12.3767L1.19764 12.2165L1 11.8736L1.04178 11.393L1.00643 10.9123L1.03696 10.4317L1.05463 9.95105L1.04338 9.47042L1.06749 8.98978L1.1173 8.57163L1.53668 8.39059H1.92232L2.30796 8.42263H2.6936L3.09852 8.30407L3.24796 7.90034L3.18047 7.38926L3.23189 6.87658L3.16762 6.3623L3.19172 5.84962L3.20297 5.39783L3.32348 4.95884L3.38936 4.51506L3.47774 4.07287L3.64646 3.65472L3.83285 3.24457L4.07548 2.86487L4.32293 2.48357L4.72143 2.24325L5.05726 1.92603L5.39469 1.62483L5.79319 1.41335L6.23828 1.32042L6.67855 1.24673L7.10115 1.04967L7.55106 1H8.0058L8.49909 1.0721L8.99239 1.10574L9.48569 1.04166L9.97899 1.05287L10.4739 1L10.9672 1.12016L11.3769 1.18264L11.5649 1.59118L11.4396 2.0574L11.5151 2.52522V2.99144L11.5328 3.45926L11.5714 3.92708L11.4894 4.3949L11.3994 4.82106L10.972 4.9989L10.4739 4.94282L9.97417 4.96525L9.47444 5.0021L8.97311 4.97807L8.57944 5.06458L8.24361 5.27767L8.0315 5.62533V6.04028L7.91581 6.49368L7.9833 6.94708L7.90135 7.40208L8.04757 7.85708L8.17451 8.19994L8.51837 8.38899H9.02131L9.52425 8.45467L10.0272 8.42744L10.5301 8.46108L11.0347 8.4002L11.3978 8.56041L11.5585 8.94172L11.446 9.42236L11.4541 9.91581L11.3641 10.3964L11.3368 10.8867L11.3255 11.3785L11.2516 11.8704Z" stroke="black" stroke-width="1.4" stroke-linecap="round" stroke-linejoin="round"/>
</svg>
