<svg width="24" height="24" viewBox="0 0 24 24" fill="none" xmlns="http://www.w3.org/2000/svg">
<path d="M11.9995 18.006C15.3157 18.006 18.004 15.3176 18.004 12.0014C18.004 8.6852 15.3157 5.99687 11.9995 5.99687C8.68325 5.99687 5.99492 8.6852 5.99492 12.0014C5.99492 15.3176 8.68325 18.006 11.9995 18.006ZM15.0858 12.0014C15.0858 13.7059 13.704 15.0878 11.9995 15.0878C10.2949 15.0878 8.9131 13.7059 8.9131 12.0014C8.9131 10.2969 10.2949 8.91506 11.9995 8.91506C13.704 8.91506 15.0858 10.2969 15.0858 12.0014Z" fill="white" stroke="black" stroke-width="1.1"/>
<path d="M17.455 5.08672C16.6491 5.08672 15.9959 5.73999 15.9959 6.54581C15.9959 7.35163 16.6491 8.0049 17.455 8.0049C18.2608 8.0049 18.9141 7.35163 18.9141 6.54581C18.9141 5.73999 18.2608 5.08672 17.455 5.08672Z" fill="white" stroke="black" stroke-width="1.1"/>
<path d="M2.10446 4.72854C1.76111 5.40239 1.60323 6.15638 1.52614 7.09995M2.10446 4.72854L1.52614 7.09995M2.10446 4.72854L2.59451 4.97824L1.52614 7.09995M2.10446 4.72854C2.68013 3.59871 3.59871 2.68013 4.72854 2.10446C5.40239 1.76111 6.15638 1.60323 7.09995 1.52614C8.03192 1.45 9.19598 1.45 10.7021 1.45H10.7273H13.2727H13.2979C14.804 1.45 15.9681 1.45 16.9 1.52614C17.8436 1.60323 18.5976 1.76111 19.2714 2.10445C20.4013 2.68012 21.3199 3.59869 21.8955 4.72853C22.2389 5.40239 22.3968 6.15638 22.4739 7.09995C22.55 8.03192 22.55 9.19599 22.55 10.7021V10.7273V13.2727V13.2979C22.55 14.804 22.55 15.9681 22.4739 16.9001C22.3968 17.8436 22.2389 18.5976 21.8955 19.2714C21.3199 20.4013 20.4013 21.3199 19.2714 21.8955C18.5976 22.2389 17.8436 22.3968 16.9001 22.4739C15.9681 22.55 14.804 22.55 13.2979 22.55H13.2727H10.7273H10.7021C9.19599 22.55 8.03192 22.55 7.09995 22.4739C6.15638 22.3968 5.40239 22.2389 4.72853 21.8955C3.59869 21.3199 2.68012 20.4013 2.10446 19.2714C1.76111 18.5976 1.60323 17.8436 1.52614 16.9C1.45 15.9681 1.45 14.804 1.45 13.2979V13.2727V10.7273V10.7021C1.45 9.19598 1.45 8.03192 1.52614 7.09995M6.05339 19.2954L6.05337 19.2954C5.47263 18.9995 5.00048 18.5274 4.70457 17.9467C4.60585 17.7529 4.497 17.4258 4.43463 16.6624C4.37003 15.8717 4.36818 14.8395 4.36818 13.2727V10.7273C4.36818 9.16054 4.37003 8.12827 4.43463 7.33759C4.497 6.57421 4.60585 6.24713 4.70457 6.05337C5.00048 5.47263 5.47263 5.00048 6.05337 4.70457C6.24713 4.60585 6.57421 4.497 7.33758 4.43463C8.12827 4.37003 9.16054 4.36818 10.7273 4.36818H13.2727C14.8395 4.36818 15.8717 4.37003 16.6624 4.43463C17.4258 4.497 17.7529 4.60585 17.9467 4.70457C18.5274 5.00048 18.9995 5.47263 19.2954 6.05337L19.2954 6.05339C19.3942 6.24716 19.503 6.57424 19.5654 7.33756C19.6299 8.12827 19.6318 9.16056 19.6318 10.7273V13.2727C19.6318 14.8395 19.6299 15.8717 19.5654 16.6624C19.503 17.4258 19.3942 17.7529 19.2954 17.9466L19.7855 18.1964L19.2954 17.9467C18.9995 18.5274 18.5274 18.9995 17.9467 19.2954L18.1873 19.7677L17.9466 19.2954C17.7529 19.3942 17.4258 19.503 16.6624 19.5654C15.8717 19.6299 14.8395 19.6318 13.2727 19.6318H10.7273C9.16056 19.6318 8.12827 19.6299 7.33756 19.5654C6.57424 19.503 6.24716 19.3942 6.05339 19.2954Z" fill="white" stroke="black" stroke-width="1.1"/>
</svg>
