<svg width="24" height="24" viewBox="0 0 24 24" fill="none" xmlns="http://www.w3.org/2000/svg">
<path fill-rule="evenodd" clip-rule="evenodd" d="M13.1505 10.2323L13.4284 9.97681L13.7194 9.55528L14.0812 9.18971L14.43 8.79429L14.8889 8.54062L15.3663 8.38209L15.827 8.20116L16.2859 7.97361L16.7839 7.86543L17.2912 7.82812L17.8097 7.87475L18.3282 7.90087L18.8281 8.05942H19.3559L19.8372 8.26458L20.3594 8.47908L20.8332 8.78683L21.333 9.07593L21.7135 9.50865L21.9131 10.057L22.232 10.5382L22.4036 11.0903L22.5995 11.6349L22.6368 12.2169L22.8494 12.6813L22.9389 13.17L22.8364 13.6698L22.8867 14.1865L22.9744 14.705L22.9333 15.2235L22.9688 15.7421L22.9725 16.2606L22.9091 16.7791L22.9557 17.2976L23.0005 17.8161L22.8699 18.3496L22.8326 18.8811L22.8345 19.4146L22.8587 19.948L22.9184 20.4796L22.855 21.013L22.911 21.5465L22.9352 22.078L22.9539 22.6115L22.8662 22.7793L22.7188 22.7458L22.1985 22.7402L21.6799 22.7476L21.1614 22.7737L20.6429 22.7831L20.1244 22.8111L19.604 22.7402L19.0855 22.7626H18.567L18.3487 22.5928L18.4066 22.0538L18.4084 21.5129L18.3842 20.972L18.2891 20.4311L18.3879 19.8902L18.317 19.3512L18.4271 18.8103L18.3749 18.2694L18.3861 17.7285L18.2629 17.1876L18.3282 16.6467L18.2685 16.1076L18.3133 15.5667L18.4233 15.0258L18.3357 14.5297L18.3282 14.028L18.1865 13.5467L17.931 13.1159L17.8004 12.575L17.3154 12.312L16.8902 11.9912L16.3642 11.8867L15.8364 11.8588L15.2992 11.8681L14.8366 12.1572L14.3536 12.4109L13.9898 12.8175L13.587 13.2353L13.462 13.7985L13.268 14.3432L13.2382 14.9195L13.2531 15.4679L13.3202 16.0162L13.3706 16.5646L13.3631 17.1111L13.3557 17.6594L13.3911 18.2078L13.3464 18.7543L13.2363 19.3027L13.3911 19.851L13.2662 20.3994L13.3482 20.9459L13.255 21.4942L13.3725 22.0426L13.3184 22.591L13.0684 22.7999L12.5537 22.742L12.0389 22.8148L11.5222 22.8428L11.0074 22.8073L10.4926 22.7943L9.97786 22.8055L9.46307 22.8017L8.94828 22.7924L8.73006 22.6264L8.78042 22.0799L8.65918 21.5353L8.78974 20.9888L8.73565 20.4423L8.68902 19.8977L8.83824 19.3512L8.66478 18.8047L8.7972 18.26L8.8028 17.7135L8.70581 17.167L8.73006 16.6224L8.82145 16.0759L8.69649 15.5294L8.6741 14.9848L8.77295 14.4383L8.80467 13.8937L8.73751 13.3472L8.83077 12.8007L8.76736 12.2561L8.79533 11.7096L8.79161 11.1631L8.82145 10.6184L8.76363 10.0719L8.82518 9.52544L8.66291 8.98081L8.67597 8.43431L8.94641 8.18625L9.51156 8.20489L10.0767 8.29442L10.6419 8.25152L11.207 8.20303L11.7722 8.1564L12.3373 8.30189L12.9024 8.32053L13.1785 8.44177L13.1841 8.9864L13.1393 9.53103L13.0908 10.0738L13.0834 10.2379L13.1505 10.2323Z" fill="white"/>
<path d="M13.1505 10.2323L13.4284 9.97681L13.7194 9.55528L14.0812 9.18971L14.43 8.79429L14.8889 8.54062L15.3663 8.38209L15.827 8.20116L16.2859 7.97361L16.7839 7.86543L17.2912 7.82812L17.8097 7.87475L18.3282 7.90087L18.8281 8.05942H19.3559L19.8372 8.26458L20.3594 8.47908L20.8332 8.78683L21.333 9.07593L21.7135 9.50865L21.9131 10.057L22.232 10.5382L22.4036 11.0903L22.5995 11.6349L22.6368 12.2169L22.8494 12.6813L22.9389 13.17L22.8364 13.6698L22.8867 14.1865L22.9744 14.705L22.9333 15.2235L22.9688 15.7421L22.9725 16.2606L22.9091 16.7791L22.9557 17.2976L23.0005 17.8161L22.8699 18.3496L22.8326 18.8811L22.8345 19.4146L22.8587 19.948L22.9184 20.4796L22.855 21.013L22.911 21.5465L22.9352 22.078L22.9539 22.6115L22.8662 22.7793L22.7188 22.7458L22.1985 22.7402L21.6799 22.7476L21.1614 22.7737L20.6429 22.7831L20.1244 22.8111L19.604 22.7402L19.0855 22.7626H18.567L18.3487 22.5928L18.4066 22.0538L18.4084 21.5129L18.3842 20.972L18.2891 20.4311L18.3879 19.8902L18.317 19.3512L18.4271 18.8103L18.3749 18.2694L18.3861 17.7285L18.2629 17.1876L18.3282 16.6467L18.2685 16.1076L18.3133 15.5667L18.4233 15.0258L18.3357 14.5297L18.3282 14.028L18.1865 13.5467L17.931 13.1159L17.8004 12.575L17.3154 12.312L16.8902 11.9912L16.3642 11.8867L15.8364 11.8588L15.2992 11.8681L14.8366 12.1572L14.3536 12.4109L13.9898 12.8175L13.587 13.2353L13.462 13.7985L13.268 14.3432L13.2382 14.9195L13.2531 15.4679L13.3202 16.0162L13.3706 16.5646L13.3631 17.1111L13.3557 17.6594L13.3911 18.2078L13.3464 18.7543L13.2363 19.3027L13.3911 19.851L13.2662 20.3994L13.3482 20.9459L13.255 21.4942L13.3725 22.0426L13.3184 22.591L13.0684 22.7999L12.5537 22.742L12.0389 22.8148L11.5222 22.8428L11.0074 22.8073L10.4926 22.7943L9.97786 22.8055L9.46307 22.8017L8.94828 22.7924L8.73006 22.6264L8.78042 22.0799L8.65918 21.5353L8.78974 20.9888L8.73565 20.4423L8.68902 19.8977L8.83824 19.3512L8.66478 18.8047L8.7972 18.26L8.8028 17.7135L8.70581 17.167L8.73006 16.6224L8.82145 16.0759L8.69649 15.5294L8.6741 14.9848L8.77295 14.4383L8.80467 13.8937L8.73751 13.3472L8.83077 12.8007L8.76736 12.2561L8.79533 11.7096L8.79161 11.1631L8.82145 10.6184L8.76363 10.0719L8.82518 9.52544L8.66291 8.98081L8.67597 8.43431L8.94641 8.18625L9.51156 8.20489L10.0767 8.29442L10.6419 8.25152L11.207 8.20303L11.7722 8.1564L12.3373 8.30189L12.9024 8.32053L13.1785 8.44177L13.1841 8.9864L13.1393 9.53103L13.0908 10.0738L13.0834 10.2379L13.1505 10.2323Z" stroke="black" stroke-width="1.1" stroke-linecap="round" stroke-linejoin="round"/>
<path fill-rule="evenodd" clip-rule="evenodd" d="M1.43641 22.7772L1.34129 22.6243L1.32263 22.0778L1.37486 21.5332L1.30957 20.9867L1.42149 20.4402L1.43641 19.8956L1.33382 19.3491L1.31144 18.8026L1.33942 18.2579L1.3618 17.7114L1.44946 17.165L1.42335 16.6203L1.40283 16.0738L1.35061 15.5273L1.39911 14.9827L1.30957 14.4362L1.46998 13.8916L1.47184 13.3451L1.46438 12.7986L1.3301 12.254L1.48117 11.7075L1.37673 11.161L1.41402 10.6163L1.38418 10.0698L1.35807 9.52334L1.47371 8.97871L1.48117 8.43222L1.6024 8.20653L2.11906 8.23078L2.63385 8.16176L3.14864 8.15803L3.66342 8.1543L4.17821 8.29979L4.69486 8.18601L5.20965 8.1655L5.72444 8.21398L5.90349 8.449L5.9296 8.99362L5.86992 9.53826L5.8979 10.0829L6.00794 10.6275L5.9408 11.1722L5.94453 11.7168L5.85314 12.2614L5.93706 12.806L5.89603 13.3507L5.94266 13.8953L6.01913 14.4399L5.99675 14.9846L5.87552 15.5292L6.02846 16.0738L5.98929 16.6184L5.87739 17.1631L5.85127 17.7077L5.88111 18.2523L5.96318 18.797L6.01913 19.3416L5.91282 19.8862L5.86805 20.4309L6.03219 20.9755L5.90162 21.5201L5.95012 22.0648V22.6094L5.73935 22.8817L5.22084 22.9097L4.70232 22.8724L4.18381 22.9097L3.66528 22.8705L3.1449 22.7996L2.62638 22.8742L2.10787 22.7381L1.58935 22.8071L1.43641 22.7772Z" fill="white"/>
<path d="M1.43641 22.7772L1.34129 22.6243L1.32263 22.0778L1.37486 21.5332L1.30957 20.9867L1.42149 20.4402L1.43641 19.8956L1.33382 19.3491L1.31144 18.8026L1.33942 18.2579L1.3618 17.7114L1.44946 17.165L1.42335 16.6203L1.40283 16.0738L1.35061 15.5273L1.39911 14.9827L1.30957 14.4362L1.46998 13.8916L1.47184 13.3451L1.46438 12.7986L1.3301 12.254L1.48117 11.7075L1.37673 11.161L1.41402 10.6163L1.38418 10.0698L1.35807 9.52334L1.47371 8.97871L1.48117 8.43222L1.6024 8.20653L2.11906 8.23078L2.63385 8.16176L3.14864 8.15803L3.66342 8.1543L4.17821 8.29979L4.69486 8.18601L5.20965 8.1655L5.72444 8.21398L5.90349 8.449L5.9296 8.99362L5.86992 9.53826L5.8979 10.0829L6.00794 10.6275L5.9408 11.1722L5.94453 11.7168L5.85314 12.2614L5.93706 12.806L5.89603 13.3507L5.94266 13.8953L6.01913 14.4399L5.99675 14.9846L5.87552 15.5292L6.02846 16.0738L5.98929 16.6184L5.87739 17.1631L5.85127 17.7077L5.88111 18.2523L5.96318 18.797L6.01913 19.3416L5.91282 19.8862L5.86805 20.4309L6.03219 20.9755L5.90162 21.5201L5.95012 22.0648V22.6094L5.73935 22.8817L5.22084 22.9097L4.70232 22.8724L4.18381 22.9097L3.66528 22.8705L3.1449 22.7996L2.62638 22.8742L2.10787 22.7381L1.58935 22.8071L1.43641 22.7772Z" stroke="black" stroke-width="1.1" stroke-linecap="round" stroke-linejoin="round"/>
<path fill-rule="evenodd" clip-rule="evenodd" d="M1 3.6299L1.06155 3.10951L1.29097 2.63949L1.41966 2.11724L1.87477 1.82068L2.2161 1.42899L2.65067 1.12683L3.18598 1.09513L3.69331 1L4.20623 1.0485L4.73221 1.12497L5.11083 1.51292L5.5734 1.75539L5.94829 2.12843L6.08818 2.64322L6.20383 3.13376L6.23741 3.63549L6.2001 4.14095L6.08633 4.63895L5.84199 5.09032L5.56967 5.53797L5.18545 5.90727L4.71542 6.16279L4.18198 6.22435L3.66533 6.29709L3.15054 6.22061L2.67492 6.03037L2.21423 5.81214L1.81135 5.4932L1.51666 5.07354L1.19584 4.65947L1.01865 4.1596L1 3.6299Z" fill="white"/>
<path d="M1 3.6299L1.06155 3.10951L1.29097 2.63949L1.41966 2.11724L1.87477 1.82068L2.2161 1.42899L2.65067 1.12683L3.18598 1.09513L3.69331 1L4.20623 1.0485L4.73221 1.12497L5.11083 1.51292L5.5734 1.75539L5.94829 2.12843L6.08818 2.64322L6.20383 3.13376L6.23741 3.63549L6.2001 4.14095L6.08633 4.63895L5.84199 5.09032L5.56967 5.53797L5.18545 5.90727L4.71542 6.16279L4.18198 6.22435L3.66533 6.29709L3.15054 6.22061L2.67492 6.03037L2.21423 5.81214L1.81135 5.4932L1.51666 5.07354L1.19584 4.65947L1.01865 4.1596L1 3.6299Z" stroke="black" stroke-width="1.1" stroke-linecap="round" stroke-linejoin="round"/>
</svg>
