<svg width="963" height="795" viewBox="0 0 963 795" fill="none" xmlns="http://www.w3.org/2000/svg">
<path d="M481.782 397.374L455.756 236.719L475.121 253.738L469.571 176.771L450.946 207.016L432.321 91.6735L446.136 104.465L429.484 2.23985L522.485 0.288574L502.257 173.952L521.128 160.185L505.093 285.175L491.156 275.961L481.782 397.374Z" fill="#24726B"/>
<path d="M481.78 397.374L299.11 420.139L318.475 403.228L230.901 408.106L265.314 424.367L133.954 440.845L148.632 428.703L32.1964 443.229L30.0996 361.601L227.571 379.379L212.03 362.685L354.244 376.886L343.76 389.136L481.78 397.374Z" fill="#24726B"/>
<path d="M481.781 397.373L507.806 557.919L488.441 540.9L493.992 617.867L512.617 587.622L531.241 702.965L517.427 690.173L534.078 792.398L441.201 794.349L461.306 620.686L442.435 634.453L458.592 509.463L472.407 518.569L481.781 397.373Z" fill="#24726B"/>
<path d="M481.782 397.374L310.583 336.776L278.884 325.611L227.45 306.098L247.061 301.979L66.3643 239.538L110.891 167.882L205.248 216.447L191.927 220.025L268.893 263.17L267.906 248.752L382.985 323.551L366.95 329.513L481.782 397.374Z" fill="#24726B"/>
<path d="M481.782 397.373L412.957 547.838L400.253 575.698L378.051 620.794L373.364 603.666L302.196 762.479L220.666 723.236L276.047 640.415L280.117 652.123L329.208 584.37L312.803 585.346L397.909 484.204L404.693 498.297L481.782 397.373Z" fill="#24726B"/>
<path d="M481.781 397.373L336.606 497.43L343.637 474.231L270.618 516.943L309.718 515.859L205.37 587.839L211.044 570.928L118.537 634.67L70.3096 564.857L251.5 493.419L228.435 485.939L359.671 435.639L357.575 450.816L481.781 397.373Z" fill="#24726B"/>
<path d="M481.782 397.373L652.982 457.754L684.681 469.028L756.96 494.503L737.225 498.514L897.2 555.101L852.674 626.756L691.711 524.531L634.11 488.541L648.295 482.145L598.958 456.019L596.614 465.125L481.782 397.373Z" fill="#24726B"/>
<path d="M481.782 397.375L664.453 374.502L698.249 370.274L775.338 360.626L760.537 372.767L931.366 351.412L933.586 433.04L735.991 415.262L665.563 409.408L674.32 397.592L616.719 396.616L619.803 405.505L481.782 397.375Z" fill="#24726B"/>
<path d="M481.782 397.375L371.514 267.29L351.162 243.224L304.662 188.371L323.903 193.9L220.789 72.3787L301.332 31.6187L378.051 192.599L405.926 249.728L390.015 248.644L416.534 293.524L423.934 286.911L481.782 397.375Z" fill="#24726B"/>
<path d="M481.782 397.373L592.421 527.133L612.895 551.198L659.519 605.943L640.278 600.306L743.639 721.719L663.219 762.695L586.007 601.823L558.131 544.803L574.043 545.778L547.277 500.899L539.877 507.62L481.782 397.373Z" fill="#24726B"/>
<path d="M481.782 397.374L550.607 246.8L563.435 218.94L592.421 155.524L596.984 172.869L661.369 32.1597L742.899 71.2937L626.587 212.87L585.513 263.495L578.36 250.92L548.511 294.281L558.871 296.341L481.782 397.374Z" fill="#24726B"/>
<path d="M481.782 397.371L650.885 318.778L623.256 314.442L700.222 271.514L682.214 304.252L803.707 247.881L783.355 245.171L891.033 195.197L838.243 123L683.817 244.846L685.791 221.973L575.523 310.864L592.544 315.851L481.782 397.371Z" fill="#24726B"/>
<path d="M199.325 631.42L374.595 483.339L169.106 626L199.325 631.42Z" fill="#256862"/>
<path d="M788.286 639.114L613.017 491.142L818.505 633.694L788.286 639.114Z" fill="#256862"/>
<path d="M67.1028 591.199L281.842 491.142L39.7207 578.624L67.1028 591.199Z" fill="#256862"/>
<path d="M198.216 671.42L356.341 509.138L181.071 671.853L198.216 671.42Z" fill="#256862"/>
<path d="M234.604 697.981L352.766 533.207L208.085 706.328L234.604 697.981Z" fill="#256862"/>
<path d="M620.419 704.702L528.035 525.076L592.79 741.776L620.419 704.702Z" fill="#256862"/>
<path d="M942.589 479.112L720.942 449.626L962.941 519.656L942.589 479.112Z" fill="#256862"/>
<path d="M139.259 606.813L294.794 513.802L126.802 604.428L139.259 606.813Z" fill="#256862"/>
<path d="M122.731 507.081L304.785 449.193L111.507 502.203L122.731 507.081Z" fill="#256862"/>
<path d="M67.8436 545.345L247.677 482.253L56.4961 540.792L67.8436 545.345Z" fill="#256862"/>
<path d="M43.4235 489.517L229.918 444.095L32.5693 483.88L43.4235 489.517Z" fill="#256862"/>
<path d="M98.432 429.246L293.683 412.009L89.3047 422.199L98.432 429.246Z" fill="#256862"/>
<path d="M10.8595 402.254L253.104 398.785L0.62207 392.714L10.8595 402.254Z" fill="#256862"/>
<path d="M25.0443 316.827L281.597 357.696L17.1504 305.011L25.0443 316.827Z" fill="#256862"/>
<path d="M55.6319 353.468L315.392 374.173L46.6279 342.302L55.6319 353.468Z" fill="#256862"/>
<path d="M94.2396 274.118L331.674 348.159L90.416 262.302L94.2396 274.118Z" fill="#256862"/>
<path d="M198.958 119.21L383.355 297.644L203.275 104.576L198.958 119.21Z" fill="#256862"/>
<path d="M668.028 124.845L560.72 293.523L683.569 122.244L668.028 124.845Z" fill="#256862"/>
<path d="M732.785 161.813L611.662 281.817L745.612 161.705L732.785 161.813Z" fill="#256862"/>
<path d="M908.547 163.218L756.343 251.893L921.005 165.928L908.547 163.218Z" fill="#256862"/>
<path d="M901.146 136.986L604.507 328.753L922.484 142.081L901.146 136.986Z" fill="#256862"/>
<path d="M852.426 288.968L669.509 344.797L863.527 293.955L852.426 288.968Z" fill="#256862"/>
<path d="M893.376 305.339L707.129 351.628L908.177 322.684L893.376 305.339Z" fill="#256862"/>
<path d="M909.164 352.498L713.913 369.625L918.292 359.544L909.164 352.498Z" fill="#256862"/>
<path d="M860.32 375.908L634.603 389.567L870.434 384.255L860.32 375.908Z" fill="#256862"/>
<path d="M952.828 402.037L756.713 408.758L961.462 409.625L952.828 402.037Z" fill="#256862"/>
<path d="M874.011 440.737L678.513 426.861L880.918 449.192L874.011 440.737Z" fill="#256862"/>
<path d="M892.266 528.001L630.533 447.24L897.693 541.877L892.266 528.001Z" fill="#256862"/>
<path d="M911.384 582.635L660.505 478.458L915.084 596.836L911.384 582.635Z" fill="#256862"/>
<path d="M838.735 618.087L669.386 513.802L838.735 629.145V618.087Z" fill="#256862"/>
<path d="M918.167 633.587L743.021 536.89L918.784 644.536L918.167 633.587Z" fill="#256862"/>
<path d="M696.643 628.706L582.305 504.474L693.066 638.245L696.643 628.706Z" fill="#256862"/>
<path d="M667.288 676.84L577.125 541.443L661.985 685.946L667.288 676.84Z" fill="#256862"/>
<path d="M765.594 637.058L636.577 528.654L763.373 647.031L765.594 637.058Z" fill="#256862"/>
<path d="M541.972 695.487L514.22 544.914L533.091 702.75L541.972 695.487Z" fill="#256862"/>
<path d="M354.739 684.106L415.793 541.121L342.774 687.141L354.739 684.106Z" fill="#256862"/>
<path d="M427.14 696.678L453.535 545.779L416.039 701.773L427.14 696.678Z" fill="#256862"/>
<path d="M454.399 680.203L466.117 527.786L443.915 686.165L454.399 680.203Z" fill="#256862"/>
<path d="M368.06 697.653L438.489 501.007L352.149 702.531L368.06 697.653Z" fill="#256862"/>
<path d="M496.83 679.331L487.58 499.488L485.359 687.461L496.83 679.331Z" fill="#256862"/>
<path d="M307.992 702.208L416.657 515.861L291.218 705.46L307.992 702.208Z" fill="#256862"/>
<path d="M158.379 161.269L340.062 303.17L128.406 167.665L158.379 161.269Z" fill="#256862"/>
<path d="M776.816 156.501L603.643 306.425L807.158 161.596L776.816 156.501Z" fill="#256862"/>
<path d="M56.9908 204.416L270.744 306.099L29.4854 216.665L56.9908 204.416Z" fill="#256862"/>
<path d="M50.9446 445.07L292.573 421.547L36.2668 468.919L50.9446 445.07Z" fill="#256862"/>
<path d="M182.183 128.966L351.532 282.359L165.038 129.508L182.183 128.966Z" fill="#256862"/>
<path d="M603.397 87.8794L527.665 273.359L572.438 52.8647L603.397 87.8794Z" fill="#256862"/>
<path d="M129.267 189.023L283.939 283.335L116.687 191.299L129.267 189.023Z" fill="#256862"/>
<path d="M881.042 266.205L621.159 351.52L886.223 252.33L881.042 266.205Z" fill="#256862"/>
<path d="M899.667 211.133L651.748 320.622L902.997 196.824L899.667 211.133Z" fill="#256862"/>
<path d="M684.187 166.255L574.042 293.413L680.363 156.824L684.187 166.255Z" fill="#256862"/>
<path d="M652.981 117.69L570.835 256.99L647.184 108.91L652.981 117.69Z" fill="#256862"/>
<path d="M528.899 100.452L506.697 251.785L519.772 93.4058L528.899 100.452Z" fill="#256862"/>
<path d="M343.761 106.308L405.679 248.968L331.674 103.273L343.761 106.308Z" fill="#256862"/>
<path d="M414.558 99.9148L445.27 250.163L403.334 95.0366L414.558 99.9148Z" fill="#256862"/>
<path d="M440.585 116.283L459.21 268.049L429.854 110.646L440.585 116.283Z" fill="#256862"/>
<path d="M353.382 99.4783L432.075 293.631L337.225 95.1421L353.382 99.4783Z" fill="#256862"/>
<path d="M483.508 116.929L480.177 296.88L471.79 109.015L483.508 116.929Z" fill="#256862"/>
<path d="M286.531 95.4684L401.116 278.997L269.633 92.6499L286.531 95.4684Z" fill="#256862"/>
</svg>
